<svg width="1270" height="794" viewBox="0 0 1270 794" fill="none" xmlns="http://www.w3.org/2000/svg">
<path d="M1230.22 201.072L1229.77 200.776V201.22L1230.22 201.072V201.072ZM1225.78 197.076L1226.81 196.632V196.04L1225.78 197.076ZM1244.13 185.534L1243.98 183.462L1243.69 182.278L1244.13 185.534H1244.13ZM1179.44 170.291L1178.41 170.735L1169.97 173.251L1167.01 174.287L1163.6 175.323L1162.42 175.767V176.211L1162.86 183.906L1163.31 191.009L1163.75 197.52L1164.49 197.964L1167.16 197.224L1179.15 193.673L1179.44 194.413L1200.76 186.274L1200.91 186.569L1202.83 185.83L1209.64 183.166L1216.15 191.009L1217.04 190.269L1217.49 188.049L1217.34 191.601H1218.82L1219.26 193.377L1220.6 195.892L1227.55 187.457L1233.33 189.381L1234.66 186.421L1244.13 181.39L1240.13 173.547L1241.17 178.578L1236.29 182.278L1230.81 182.722L1219.86 171.031L1214.97 163.632L1219.86 158.453L1214.82 158.157L1212.75 153.274L1212.6 152.978L1204.16 162.152L1185.51 168.368L1179.44 170.291V170.291Z" fill="#3B82F6" stroke="white" stroke-width="0.970631" stroke-linejoin="round"/>
<path d="M623.602 80.3185L626.562 90.8252L632.78 128.709L635.74 143.803L636.628 157.121L640.033 165.112L640.773 171.919L641.365 174.139L641.217 174.583L635.296 184.35L639.145 190.861L646.546 242.951L646.842 249.758L654.243 249.314L683.405 247.686L756.234 241.619L763.487 240.879V240.139L761.415 228.745L752.385 224.157L745.28 216.758L734.03 209.951L730.477 209.655L725 205.511L726.481 185.09L721.3 180.354L723.076 172.067L732.55 163.484L730.921 145.727L734.326 141.879L745.872 129.745L759.047 112.875L764.08 109.323L772.961 105.031L782.287 98.0763L776.07 99.2602L772.369 96.4485L758.158 98.3723L755.938 95.7086L743.208 100.888L732.994 96.5965L730.181 93.1929L722.04 93.7849L716.563 90.9732L718.339 88.9014L711.382 86.6817H705.165L695.247 90.9732L693.323 88.0136L677.632 85.7938L672.303 72.4754L671.711 68.4799L664.901 66.5562L665.493 77.9508L647.434 79.2826L625.082 80.1705L623.602 80.3185L623.602 80.3185Z" fill="#3B82F6" stroke="white" stroke-width="0.970631" stroke-linejoin="round"/>
<path d="M481.94 78.9863L432.943 75.7307L397.269 72.3271L361.742 68.1836L339.686 65.224L304.456 59.7486L286.84 56.789L247.465 49.2419L243.32 48.354L236.955 78.5424L239.768 84.0177L241.988 92.4527L240.656 93.6365L243.468 101.332L247.317 104.587L258.271 122.937L259.307 126.045L263.748 125.749L258.567 150.018L256.495 150.61L253.682 158.749L268.337 159.785L269.521 166.592L277.811 186.865L279.291 188.049L285.064 199.888L286.544 198.704L298.831 198.556L314.373 200.184L318.222 195.152L322.811 203.439L323.699 203.883L323.847 202.995L325.92 188.493L376.545 194.708L416.956 198.556L438.272 200.332L476.315 202.551L478.239 202.699H478.683L478.832 200.628L479.276 190.417L479.868 176.95L480.016 173.547L480.312 167.628L482.68 121.161L484.605 85.0536L484.753 79.1343L481.94 78.9863L481.94 78.9863Z" fill="#3B82F6" stroke="white" stroke-width="0.970631" stroke-linejoin="round"/>
<path d="M620.493 80.3184L575.789 81.2063L544.556 81.0583L517.763 80.4664L486.381 79.2825L484.753 79.1345L484.604 85.0538L482.68 121.161L480.312 167.628L480.016 173.547L485.789 173.843L551.069 175.619L611.316 175.175L636.332 174.435L641.365 174.139L640.773 171.919L640.033 165.112L636.628 157.121L635.74 143.803L632.78 128.709L626.562 90.8251L623.602 80.3184H620.493L620.493 80.3184Z" fill="#3B82F6" stroke="white" stroke-width="0.970631" stroke-linejoin="round"/>
<path d="M243.172 48.3539L229.998 45.6903L225.705 44.6544L223.781 44.2104L206.61 121.457L207.35 127.82L206.758 134.48L207.054 135.959V136.107L207.202 138.919L212.235 144.394L204.981 162.596L189.587 182.722L189.142 186.421L193.139 195.892L179.077 254.197L178.484 257.305L182.629 258.193L224.521 266.48L241.248 269.587L245.541 270.327L249.686 271.067L271.001 274.471L309.192 280.242L313.485 280.834L314.077 275.95L315.41 266.332L320.442 227.856L323.107 208.767L323.699 203.883L322.811 203.439L318.222 195.152L314.373 200.184L298.83 198.556L286.544 198.704L285.064 199.888L279.291 188.049L277.811 186.865L269.521 166.592L268.337 159.785L253.682 158.749L256.495 150.61L258.567 150.018L263.748 125.749L259.307 126.045L258.271 122.937L247.317 104.587L243.468 101.332L240.656 93.6366L241.988 92.4527L239.768 84.0177L236.955 78.5424L243.32 48.354H243.172V48.3539Z" fill="#3B82F6" stroke="white" stroke-width="0.970631" stroke-linejoin="round"/>
<path d="M64.7996 85.2016L64.9477 82.6859L64.6517 82.8339L64.7998 85.2016H64.7996ZM96.3294 71.7352L97.2176 70.2554L96.1814 70.1074L96.3295 71.7352H96.3294ZM93.5169 69.0715L94.4051 66.1119L93.5169 65.8159V69.0715V69.0715ZM104.323 64.7801L104.175 61.8204L101.658 65.668L104.323 64.7801H104.323ZM104.619 58.5648L105.063 55.6052L104.767 54.8653L104.619 58.5648H104.619ZM105.063 44.0626L104.915 42.4348L104.323 42.2868L105.063 44.0626H105.063ZM109.8 34.2958L108.468 34.1478L105.803 38.2913L109.8 34.2958V34.2958ZM106.099 30.3002L106.839 29.7083L106.987 29.2644L106.099 30.3002H106.099ZM105.359 30.7442L104.915 27.7846L103.583 30.3002L105.359 30.7442ZM104.619 26.6007L103.287 26.0088L104.323 27.4886L104.619 26.6007V26.6007ZM109.06 29.1164V27.1926L108.616 27.9325L109.06 29.1164ZM110.392 27.1926L109.8 26.7487H109.652L110.392 27.1926H110.392ZM101.954 23.937L101.214 23.3451L100.918 23.1971L101.954 23.937V23.937ZM107.431 23.3451L103.435 24.381L104.471 24.6769L107.431 23.3451ZM104.175 23.0491L103.435 22.1612L103.287 22.3092L104.175 23.0491H104.175ZM107.283 21.2733H106.691L107.431 21.5693L107.283 21.2733H107.283ZM78.2701 97.1881L83.5991 102.959L82.7109 114.058L83.7471 116.87L91.7406 121.161L114.241 123.233L115.129 125.897L125.787 126.045L135.853 127.377L152.284 125.601L160.425 126.933L162.646 125.897L204.241 135.368L207.054 135.96L206.758 134.48L207.35 127.82L206.61 121.457L223.781 44.2106L221.412 43.7667L186.774 35.6277L156.576 27.9326L122.382 18.4617L112.168 15.946L114.537 28.8205L112.316 32.964L108.32 30.8922L112.168 48.7981L108.024 54.7174L106.099 60.1927V65.816L97.3656 71.8833L93.6649 69.5156L90.1123 71.2913L96.6255 62.8564L94.9972 68.6277L98.6978 64.6321L101.658 65.2241L100.77 57.825L102.695 58.1209L106.691 49.242L105.359 47.9102L100.178 54.5694L96.7735 54.7173L100.474 50.5738L104.619 49.538L103.139 41.9909L98.9939 40.955L96.9215 37.4034L94.4051 38.7353L80.7866 32.816L68.7964 23.4931L65.5398 32.52L65.2437 36.3676L67.7602 43.1747L66.1319 65.2241L64.9477 68.6277L71.6089 69.2196L64.9477 73.955L68.5003 75.7308L65.6878 85.2017L64.3556 77.8025L61.8391 86.3855L65.2437 90.529L68.9444 90.233L73.3852 92.8967L75.6056 97.1882H78.2701V97.1881Z" fill="#3B82F6" stroke="white" stroke-width="0.970631" stroke-linejoin="round"/>
<path d="M339.39 440.211L289.505 433.996L262.712 430.148L224.521 424.081L220.672 423.489V423.785L214.159 452.493L210.755 452.345L205.574 447.758L199.06 453.233L198.912 476.762L196.544 481.794V482.238V482.386L196.248 486.085L201.429 499.996L206.018 506.211L197.728 511.094L194.471 517.161L189.142 530.184L186.478 530.776L186.33 541.579L190.919 544.982L188.55 551.493L183.221 551.789L180.113 557.561L190.771 564.22L210.902 575.466L273.074 608.466L325.771 614.978H326.364L330.508 571.323L331.544 560.52L342.647 445.982L343.239 440.655L339.39 440.211H339.39Z" fill="#3B82F6" stroke="white" stroke-width="0.970631" stroke-linejoin="round"/>
<path d="M85.9676 522.341L86.5596 525.596V526.188L85.9676 522.341ZM64.2076 509.614L65.2438 511.834L65.8359 511.686L64.2076 509.614V509.614ZM90.1123 509.17L90.5564 513.018L93.2209 514.942L90.1123 509.17ZM72.201 488.157L70.5727 487.713L71.905 488.305L72.201 488.157V488.157ZM55.77 483.717L51.7733 486.085L52.8095 487.121L55.77 483.717V483.717ZM48.0726 480.906L47.7765 482.09L49.1088 482.386L48.0726 480.906V480.906ZM61.099 483.865L67.6122 487.565L68.7964 486.529L61.099 483.865ZM10.6218 353.493L10.4737 353.641L10.6218 353.493ZM26.4607 354.233L26.3126 353.789V354.381L26.4607 354.233V354.233ZM111.872 241.915L106.099 240.435L42.7436 222.973L19.2073 215.87V216.462L17.8751 231.112L11.6579 248.426L1.29605 261.3L1 267.812L6.03291 276.838L8.54939 288.677L4.99672 298.296L5.58884 307.915L3.81253 311.91L9.88161 325.081L13.7303 330.112L13.4343 344.466L22.612 353.197L27.9409 344.318L33.714 348.906L35.9344 346.834L27.9409 348.314L27.7928 355.861L29.4211 365.332L24.9803 361.04L22.4639 355.269L21.7237 363.26L23.7961 379.094L32.0856 389.305L26.6086 396.408L27.4968 405.435L33.4179 414.61L43.7798 443.022L47.0364 444.798L46.0002 464.48L47.6285 466.847L69.8325 474.838L76.6418 482.09L79.0102 486.825L85.5234 490.525L92.6287 491.856L95.5893 499.995L101.51 502.807L110.392 513.314L118.681 527.076L118.089 539.803L122.678 545.87L183.221 551.789L188.55 551.493L190.919 544.982L186.33 541.578L186.478 530.776L189.142 530.184L194.471 517.161L197.728 511.094L206.018 506.211L201.429 499.995L196.248 486.085L196.544 482.386V482.238L192.695 477.058L180.853 461.224L157.909 428.964L125.935 383.09L107.876 358.081L90.4083 332.924L110.54 247.538L111.872 241.915L111.872 241.915Z" fill="#3B82F6" stroke="white" stroke-width="0.970631" stroke-linejoin="round"/>
<path d="M518.503 357.341L519.095 328.336L511.99 328.04L475.871 326.709L472.318 326.56L469.358 326.412L425.394 323.601L396.084 321.233L359.522 317.682L355.969 317.238L355.525 321.085L347.531 398.184L344.719 425.116L343.535 436.807L343.239 440.655L347.828 441.099L422.433 447.61L455.295 449.682L488.009 451.161L492.746 451.309L495.707 451.457L501.924 451.605L504.884 451.754L514.21 452.049H516.578V449.09L518.207 370.807L518.355 362.076V359.265L518.503 357.341L518.503 357.341Z" fill="#3B82F6" stroke="white" stroke-width="0.970631" stroke-linejoin="round"/>
<path d="M221.412 418.753L236.807 323.009L244.653 275.063L245.541 270.327L241.248 269.587L224.521 266.48L182.629 258.193L178.485 257.305L174.34 256.417L153.468 251.83L116.017 242.951L111.872 241.915L110.54 247.538L90.4084 332.924L107.876 358.081L125.935 383.09L157.909 428.964L180.853 461.224L192.695 477.058L196.544 482.238V481.794L198.912 476.762L199.06 453.233L205.574 447.758L210.755 452.345L214.159 452.493L220.672 423.785V423.489L221.412 418.753L221.412 418.753Z" fill="#3B82F6" stroke="white" stroke-width="0.970631" stroke-linejoin="round"/>
<path d="M492.302 462.852L492.45 459.005L492.598 455.157L492.746 451.31L488.009 451.162L455.295 449.682L422.433 447.61L347.828 441.099L343.239 440.655L342.647 445.982L331.545 560.52L330.508 571.323L326.364 614.978L326.956 615.126L347.384 617.049L349.308 606.691L353.009 603.731L394.456 607.431H394.752L391.052 600.179L409.851 601.511L456.776 604.175L486.085 605.507L491.118 466.7L492.154 466.848L492.302 462.852L492.302 462.852Z" fill="#3B82F6" stroke="white" stroke-width="0.970631" stroke-linejoin="round"/>
<path d="M19.2074 215.87L42.7437 222.973L106.099 240.435L111.872 241.915L116.017 242.951L153.468 251.83L174.34 256.417L178.485 257.305L179.077 254.197L193.139 195.892L189.142 186.422L189.587 182.722L204.981 162.596L212.235 144.395L207.202 138.919L207.054 136.108V135.96L204.241 135.368L162.646 125.897L160.425 126.933L152.284 125.601L135.853 127.377L125.787 126.045L115.129 125.897L114.241 123.233L91.7406 121.161L83.7471 116.87L82.7109 114.058L83.5991 102.96L78.2701 97.1883L77.826 97.3363L76.7898 98.0762L69.3885 94.2287L64.9477 95.5605L61.9871 94.0807L58.8786 106.807L56.8062 110.359L47.6285 132.704L44.964 144.987L43.3357 145.135L34.7502 165.556L28.9771 174.287L26.9047 175.767L21.5757 186.126L20.5395 197.076L17.283 206.843L19.2073 215.722V215.87L19.2074 215.87ZM73.3853 94.3768L72.9412 93.0449L72.7931 94.0808L73.3852 94.3768H73.3853Z" fill="#3B82F6" stroke="white" stroke-width="0.970631" stroke-linejoin="round"/>
<path d="M309.192 280.242L271.001 274.471L249.686 271.067L245.541 270.327L244.653 275.063L236.807 323.009L221.412 418.753L220.672 423.489L224.521 424.081L262.712 430.148L289.505 433.995L339.39 440.211L343.239 440.655L343.535 436.807L344.719 425.116L347.531 398.184L355.525 321.085L355.969 317.237L353.008 316.942L315.262 312.354L309.489 311.614L313.189 282.758L313.485 280.834L309.192 280.242V280.242Z" fill="#3B82F6" stroke="white" stroke-width="0.970631" stroke-linejoin="round"/>
<path d="M475.427 260.709L476.611 237.624L478.091 206.547L478.239 202.7L476.315 202.552L438.272 200.332L416.956 198.556L376.545 194.709L325.92 188.493L323.847 202.996L323.699 203.884L323.107 208.767L320.442 227.857L315.41 266.332L314.077 275.951L313.485 280.834L313.189 282.758L309.489 311.615L315.262 312.354L353.008 316.942L355.969 317.238L359.522 317.682L396.084 321.233L425.394 323.601L469.358 326.413L472.318 326.561L472.466 322.713L473.207 307.175L474.539 280.094L475.131 268.552L475.279 264.704L475.427 260.709H475.427Z" fill="#3B82F6" stroke="white" stroke-width="0.970631" stroke-linejoin="round"/>
<path d="M824.771 467.883L808.784 470.251L815.297 459.892L812.485 454.121L756.086 459.596L708.421 463.444L701.464 463.888L702.352 468.031L708.125 497.924L708.273 504.583L709.902 544.834L710.05 551.493L710.494 551.641L712.714 554.009L721.596 553.713L722.484 566.736L722.78 570.435L727.369 569.991L741.432 568.955L797.238 563.776H797.534L797.386 560.52L798.866 559.484L796.202 554.453L801.827 530.776L799.606 528.112L808.044 518.789L807.452 510.798L813.669 500.44V500.292L813.373 499.996L818.702 495.112L817.221 489.193L821.366 482.682L820.478 476.614L824.919 468.031V467.883H824.771V467.883Z" fill="#3B82F6" stroke="white" stroke-width="0.970631" stroke-linejoin="round"/>
<path d="M780.659 269.143L772.517 264.852L768.076 258.785L766.596 250.054L767.78 246.058L763.488 240.879L756.234 241.619L683.405 247.686L654.244 249.314L646.842 249.758L643.734 249.906L646.25 266.332L644.178 274.175L647.434 279.058V280.094L648.471 280.242L653.207 294.153L657.796 301.404L658.092 309.691L663.125 316.646L662.237 319.606L666.826 338.251V338.695L697.171 337.807L729.589 334.996L761.415 331L768.669 337.363L768.965 337.659L770.297 337.067L769.261 331.296L774.738 327.892L776.958 312.798L774.738 311.762L776.07 304.067L782.731 302.736L790.132 297.408L793.389 288.085L793.537 283.35L787.616 277.727L785.84 274.175L780.215 270.623L780.511 269.884L780.659 269.144L780.659 269.143Z" fill="#3B82F6" stroke="white" stroke-width="0.970631" stroke-linejoin="round"/>
<path d="M700.428 444.502L696.727 381.906L690.066 378.058L689.474 375.099L684.145 370.363L689.326 364L687.254 360.301L683.405 360.449L679.852 357.933L678.372 356.749L673.339 357.045L618.717 359.117L593.701 359.709H543.963L523.98 359.413L518.355 359.265V362.076L518.207 370.807L516.578 449.09V452.049L522.944 452.197L557.286 452.641L637.664 451.458L694.951 448.794L700.576 448.35L700.428 444.502L700.428 444.502Z" fill="#3B82F6" stroke="white" stroke-width="0.970631" stroke-linejoin="round"/>
<path d="M768.668 337.363L761.415 331L729.589 334.996L697.171 337.807L666.826 338.695L666.678 339.583L670.378 346.686L673.783 349.054L677.78 356.157L678.372 356.749L679.852 357.933L683.405 360.448L687.253 360.3L689.326 364L684.145 370.363L689.474 375.099L690.066 378.058L696.727 381.906L700.428 444.502L700.576 448.35L700.872 452.197L701.02 456.045L701.316 460.04L701.464 463.888L708.421 463.444L756.086 459.596L812.484 454.121L815.297 459.892L808.784 470.251L824.771 467.883H824.919V466.7L825.215 459.892L828.175 456.193L827.287 452.049L827.139 451.901L826.991 451.753L827.583 449.829L828.471 450.125L828.915 451.309L828.767 451.753V451.901V453.085L829.359 453.233L830.544 451.753V451.605L830.692 451.161L834.541 448.794L835.133 448.498L836.465 436.363L836.169 435.771L835.725 435.623L825.215 427.04L826.843 423.933L823.883 415.498L818.554 411.354L808.488 406.915L802.123 401.735L802.863 391.081L804.787 381.166L794.129 381.758L790.873 378.354L789.392 371.547L772.517 357.341L767.78 344.17L768.965 337.659L768.668 337.363V337.363Z" fill="#3B82F6" stroke="white" stroke-width="0.970631" stroke-linejoin="round"/>
<path d="M644.622 279.798L640.033 275.211L623.898 270.475L618.717 270.327L610.872 272.547L601.546 266.628L572.385 266.924L529.901 266.48L479.72 264.852L475.279 264.704L475.131 268.551L474.539 280.094L473.206 307.175L472.466 322.713L472.318 326.56L475.871 326.708L511.989 328.04L519.095 328.336L518.503 357.341L518.354 359.264L523.979 359.413L543.963 359.708H593.7L618.717 359.117L673.339 357.045L678.372 356.749L677.78 356.157L673.783 349.054L670.378 346.686L666.678 339.583L666.826 338.695V338.251L662.237 319.605L663.125 316.646L658.092 309.691L657.796 301.404L653.207 294.152L648.47 280.242L647.434 280.094L644.622 279.798L644.622 279.798Z" fill="#3B82F6" stroke="white" stroke-width="0.970631" stroke-linejoin="round"/>
<path d="M701.316 460.04L701.02 456.045L700.872 452.197L700.576 448.35L694.951 448.794L637.664 451.457L557.286 452.641L522.943 452.197L516.578 452.049H514.21L504.884 451.753L501.924 451.605L495.706 451.457L492.746 451.309L492.598 455.157L492.45 459.004L492.302 462.852L492.154 466.847H493.042L528.864 467.735L566.759 468.179L567.203 518.789L569.868 527.668L575.789 533.291L582.154 533.587L583.486 530.924L592.22 538.915L603.618 540.098L605.69 542.466L609.835 540.542L620.197 545.426V548.237L624.046 548.089L628.042 544.686L635.444 549.421L642.401 551.937L647.138 545.426L662.237 552.529L667.862 547.941L672.451 546.166L676.151 547.054L690.066 543.058L697.467 546.166L704.128 550.457L709.901 551.493H710.049L709.901 544.834L708.273 504.583L708.125 497.924L702.352 468.031L701.464 463.888L701.316 460.04L701.316 460.04Z" fill="#3B82F6" stroke="white" stroke-width="0.970631" stroke-linejoin="round"/>
<path d="M636.332 174.435L611.316 175.175L551.069 175.619L485.789 173.843L480.016 173.547L479.868 176.951L479.275 190.417L478.831 200.628L478.683 202.7H478.239L478.091 206.547L476.611 237.623L475.427 260.709L475.279 264.704L479.719 264.852L529.901 266.48L572.384 266.924L601.546 266.628L610.871 272.547L618.717 270.327L623.898 270.476L640.033 275.211L644.622 279.798L647.434 280.094V279.058L644.178 274.175L646.25 266.332L643.733 249.906L646.842 249.758L646.546 242.951L639.145 190.861L635.296 184.35L641.217 174.583L641.365 174.139L636.332 174.435L636.332 174.435Z" fill="#3B82F6" stroke="white" stroke-width="0.970631" stroke-linejoin="round"/>
<path d="M822.55 683.197L820.626 683.641L819.738 684.529L822.55 683.197V683.197ZM828.767 683.197L827.731 682.753L827.435 683.197H828.767ZM832.32 682.013H831.284L830.692 682.753L832.32 682.013ZM830.544 680.977L830.248 680.533L830.1 680.977H830.544V680.977ZM842.386 673.134L841.942 673.43H842.682L842.386 673.134ZM863.11 664.403L863.998 663.22L862.962 664.551L863.11 664.403V664.403ZM866.07 660.556L865.774 660.704V660.852L866.07 660.556V660.556ZM789.984 673.578L792.205 670.767L786.136 669.139L783.471 671.359L789.984 673.578V673.578ZM851.416 660.704L850.823 660.112L850.675 660.408L851.416 660.704V660.704ZM853.044 658.04L851.564 657.596L852.008 659.076L853.044 658.04V658.04ZM865.182 655.525V655.081V655.229V655.525V655.525ZM868.143 653.601L867.995 653.453L868.143 653.749V653.601V653.601ZM866.958 653.305L866.662 653.157L866.514 653.601L866.958 653.305L866.958 653.305ZM856.597 652.861L857.929 652.417V651.973L856.597 652.861V652.861ZM857.337 652.121L858.077 651.381L857.929 651.233L857.337 652.121L857.337 652.121ZM852.156 646.646L851.86 646.942H852.008L852.156 646.646H852.156ZM797.534 563.776H797.238L741.431 568.955L727.369 569.991L722.78 570.435L722.928 573.986L725.889 602.547L730.774 609.354L730.922 613.35L735.659 621.637L739.507 633.771L738.175 640.578L737.139 657.448L734.918 662.924H735.214L735.659 666.771L733.142 670.323L751.497 668.251L765.856 672.246L776.07 673.578L781.251 669.879L778.438 666.179L787.912 663.22L787.616 666.475L792.501 665.291L796.498 671.507L799.902 670.323L808.784 676.39L803.307 678.314L815.889 682.013H820.626L823.439 678.61L829.508 675.354L833.8 681.569L836.761 675.946L835.873 667.067L843.866 670.175L844.755 672.838L854.228 674.022L858.965 677.87L858.373 680.977L865.034 674.762L862.518 671.507L851.416 668.695L847.271 666.327L847.123 661.888L851.712 662.48L855.264 655.229L850.675 648.865L848.159 654.933L842.386 653.897L846.383 647.385L843.718 646.646L837.205 651.233L827.879 651.825L825.215 649.753L829.508 642.206L834.541 642.058L843.126 644.87L849.343 645.462L845.939 641.17L839.425 628.444L841.202 621.341L790.132 626.964L792.057 625.04L789.984 619.713L793.093 615.125L794.869 603.583L806.119 584.345L800.642 577.686L800.938 572.803L797.534 564.811V563.776H797.534Z" fill="#3B82F6" stroke="white" stroke-width="0.970631" stroke-linejoin="round"/>
<path d="M647.138 786.341L640.033 759.556V764.587L647.138 786.341V786.341ZM645.51 739.283L640.477 748.753L639.885 751.861L645.51 739.283V739.283ZM649.507 732.327L654.243 726.112L650.839 728.184L649.507 732.327V732.327ZM666.234 717.233L655.132 723.004L658.24 722.413L666.234 717.233ZM667.714 715.161L670.823 712.646L669.638 712.942L667.714 715.161V715.161ZM492.154 466.848L491.118 466.699L486.085 605.507L456.775 604.175L409.851 601.511L391.051 600.179L394.752 607.43L394.9 607.578L410.887 623.561L420.065 634.363L432.203 643.39L440.789 659.076L444.045 675.502L451.002 680.09L456.479 686.157L464.325 688.969L475.723 696.22L480.904 698.143L488.009 691.04L490.23 683.493L493.93 676.242L505.476 671.655L509.917 673.874L522.796 674.91L534.49 682.161L542.483 683.641L540.263 687.785L544.852 690.744L549.144 695.924L550.033 701.399L552.845 705.099L559.358 720.785L565.871 726.26L570.904 734.547L577.269 741.058L580.082 741.946L582.45 758.816L589.408 762.664L589.704 767.991L591.48 767.547L603.618 782.345L609.687 783.677L617.385 788.265H629.227L637.813 793L648.026 790.78L643.438 786.489L639.293 774.058L637.665 763.256L635.296 759.704L636.332 752.453L633.224 752.157L629.079 745.35L633.816 750.381L639.293 748.457L642.253 740.614L636.332 732.623L645.214 733.659L649.359 727.296L648.767 725.076L652.467 720.193L651.579 724.484L655.724 721.229L654.096 715.457L659.425 718.269L666.234 714.422L659.573 707.466L663.717 709.094L671.415 709.538L681.481 707.318L692.731 699.771L699.54 694.148L700.576 690.004L704.721 685.713L702.5 678.61L702.945 674.17L710.346 670.915L709.754 678.758H714.195L709.31 682.901L728.997 672.543L732.254 672.395L734.326 662.924H734.918L737.139 657.448L738.175 640.578L739.507 633.771L735.658 621.637L730.922 613.35L730.774 609.354L725.889 602.547L722.928 573.986L722.78 570.435L722.484 566.735L721.596 553.713L712.714 554.009L710.494 551.641L710.05 551.493H709.902L704.129 550.457L697.467 546.166L690.066 543.058L676.151 547.054L672.451 546.166L667.862 547.942L662.237 552.529L647.138 545.426L642.401 551.937L635.444 549.421L628.043 544.686L624.046 548.09L620.197 548.238V545.426L609.835 540.543L605.691 542.466L603.618 540.099L592.22 538.915L583.486 530.924L582.154 533.587L575.789 533.291L569.868 527.668L567.203 518.789L566.759 468.179L528.864 467.735L493.042 466.847H492.154L492.154 466.848Z" fill="#3B82F6" stroke="white" stroke-width="0.970631" stroke-linejoin="round"/>
<path d="M1200.76 186.273L1179.44 194.412L1179.15 193.673L1167.16 197.224L1164.49 197.964L1164.79 199.444L1170.41 221.197L1172.19 223.417L1168.34 228.152L1171.01 230.668L1179.59 222.381L1184.18 216.018L1185.07 217.794L1206.68 208.175L1207.12 207.731L1206.98 204.179L1206.09 201.072L1201.5 188.197L1200.91 186.569L1200.76 186.273H1200.76Z" fill="#3B82F6" stroke="white" stroke-width="0.970631" stroke-linejoin="round"/>
<path d="M1180.78 83.574L1178.85 85.9417L1176.63 85.4977L1175.45 95.2646V95.4125L1179 108.731L1178.7 111.395L1172.34 119.83L1173.97 127.525V137.143L1172.78 146.022L1179.44 170.291L1185.51 168.368L1204.16 162.152L1212.6 152.978V150.61L1213.05 146.762L1212.01 147.206L1211.86 146.318L1202.54 134.924L1202.24 133.888L1180.78 83.574H1180.78Z" fill="#3B82F6" stroke="white" stroke-width="0.970631" stroke-linejoin="round"/>
<path d="M1215.27 199.592L1215.12 196.484L1214.67 197.668L1215.27 199.592H1215.27ZM1218.23 197.224L1216.3 193.525L1216.15 197.372L1218.23 197.224V197.224ZM1217.34 192.637L1218.37 195.3L1219.71 197.668L1220.6 195.892L1219.26 193.377L1218.82 191.601H1217.34V192.637V192.637ZM1200.91 186.569L1201.5 188.197L1206.09 201.072L1206.98 204.179L1207.12 207.731L1207.42 207.287L1214.53 201.664L1213.19 191.601L1216.15 191.009L1209.64 183.166L1202.83 185.829L1200.91 186.569H1200.91Z" fill="#3B82F6" stroke="white" stroke-width="0.970631" stroke-linejoin="round"/>
<path d="M1179.44 170.292L1172.78 146.022L1173.97 137.144V127.525L1172.34 119.83L1178.7 111.395L1179 108.731L1175.45 95.4126L1173.52 96.1525L1165.38 99.1121L1157.39 102.22L1139.03 108.879L1138 109.175L1144.66 124.713L1146.88 139.363L1154.72 151.646L1162.12 175.915L1162.42 175.767L1163.6 175.323L1167.01 174.287L1169.97 173.251L1178.41 170.735L1179.44 170.291V170.292Z" fill="#3B82F6" stroke="white" stroke-width="0.970631" stroke-linejoin="round"/>
<path d="M867.254 493.484L867.847 494.668L869.919 496L870.807 556.673L871.103 589.969L878.653 635.547L879.245 635.399L885.906 636.731L887.682 623.561L890.643 630.96L895.676 635.547L905.297 629.924L904.261 629.036L904.557 629.184L897.896 613.942L961.844 603.583L966.137 602.843V602.695L962.14 595.148L961.844 584.345L958.587 578.426L960.215 566.883L962.88 563.924L951.926 544.39L932.09 484.014L931.942 483.718L927.501 484.457L903.817 488.305L891.975 489.785L867.106 493.188L867.254 493.484V493.484Z" fill="#3B82F6" stroke="white" stroke-width="0.970631" stroke-linejoin="round"/>
<path d="M1075.23 783.825H1074.94L1075.08 783.973L1075.23 783.825H1075.23ZM1073.9 783.677V783.825H1074.05L1073.9 783.677ZM1074.2 783.529V783.381V783.529ZM1054.06 785.749V785.897V785.749ZM1053.77 785.897V785.749V785.897ZM1052.44 785.897H1052.29V786.045L1052.44 785.897ZM1094.48 776.574H1094.33L1094.48 776.87V776.574ZM1098.47 775.538V775.242L1098.18 775.686L1098.47 775.538V775.538ZM1096.99 775.242L1096.4 774.65L1096.25 774.798L1096.99 775.242L1096.99 775.242ZM1096.55 776.426L1094.77 774.206L1095.81 776.13L1096.55 776.426V776.426ZM1110.61 767.695V768.287L1110.91 767.991L1110.61 767.695ZM1112.68 766.215L1113.13 765.475L1112.54 766.067L1112.68 766.215V766.215ZM1113.13 764.735H1112.98V764.884L1113.13 764.735ZM1110.46 764.292L1110.32 764.143L1110.46 764.292ZM1111.8 762.072L1111.65 761.924V762.22L1111.8 762.072V762.072ZM1107.8 761.924L1107.65 761.776L1107.8 761.924ZM1112.83 758.52L1112.54 758.668L1112.98 758.816L1112.83 758.52V758.52ZM1113.42 758.52L1113.13 758.224L1113.28 758.668L1113.42 758.52L1113.42 758.52ZM1112.39 758.224L1112.24 758.076V758.372L1112.39 758.224V758.224ZM1117.86 757.188V757.04L1117.57 757.632L1117.86 757.188V757.188ZM1111.65 757.78H1111.35L1111.65 757.928V757.78ZM1114.76 756.004H1114.31L1114.16 756.153L1114.76 756.004H1114.76ZM1115.94 755.265H1115.79H1115.94ZM1103.51 755.857V755.561L1103.36 755.857H1103.51ZM1104.84 755.413H1104.39L1104.84 756.3V755.413ZM1101.29 755.561V754.673L1100.55 754.821L1101.29 755.561V755.561ZM1099.21 754.081L1099.95 754.821V754.525L1099.21 754.081ZM1120.97 754.969L1118.31 756.153L1119.2 756.301L1120.97 754.969V754.969ZM1100.25 753.637H1099.36V753.933L1100.25 753.637ZM1123.64 746.238L1123.79 745.498L1123.93 743.574L1123.64 746.238H1123.64ZM1123.79 737.951L1123.19 736.471L1122.9 737.063L1123.79 737.951ZM1089.59 741.65L1089.3 742.094L1090.04 742.242L1089.59 741.65V741.65ZM1086.78 740.318L1085.45 740.762L1086.48 740.91L1086.78 740.318V740.318ZM1083.82 740.614V740.17L1083.67 740.318L1083.82 740.614V740.614ZM1080.71 740.466L1079.82 741.058L1081.01 741.65L1080.71 740.466V740.466ZM1084.85 740.614L1084.71 740.17L1083.97 740.022L1084.85 740.614V740.614ZM1065.46 726.112L1064.57 726.556L1066.35 727.148L1065.46 726.112V726.112ZM1061.91 721.377L1060.73 719.601L1061.17 720.933L1061.91 721.377V721.377ZM1066.5 724.336L1064.43 719.601L1062.95 719.157L1066.5 724.336ZM1060.58 718.417L1060.13 717.233L1059.84 716.493L1060.58 718.417ZM1048.29 701.991L1045.63 700.067L1046.66 701.103L1048.29 701.991ZM1114.9 692.076L1104.1 674.022H1103.51L1114.9 692.076ZM1040.15 663.22L1039.71 663.072L1040.15 663.368V663.22V663.22ZM1039.26 662.184L1039.11 662.332L1039.26 662.48V662.184V662.184ZM1038.23 660.704V660.556L1038.08 660.704H1038.23ZM1038.82 660.112L1039.26 660.408V660.112H1038.82ZM1039.71 659.52L1039.11 659.668H1039.26L1039.71 659.52H1039.71ZM1038.67 659.372L1038.23 658.928L1038.37 659.076L1038.67 659.372V659.372ZM1037.63 657.744H1037.34L1037.78 657.892L1037.63 657.744H1037.63ZM1038.67 655.969H1038.08L1037.93 656.117L1038.67 655.969H1038.67ZM1039.26 656.265L1038.52 655.525L1038.82 655.673L1039.26 656.265V656.265ZM1033.64 649.901L1033.34 649.753V649.901H1033.64ZM1027.27 649.901L1026.83 649.309L1026.98 650.049L1027.27 649.901V649.901ZM973.39 645.018L977.831 641.614L972.946 644.87L973.39 645.018V645.018ZM982.272 637.915L982.716 637.471L980.939 638.211L982.272 637.915V637.915ZM926.021 628L909.886 633.179L918.768 630.664L926.021 628V628ZM966.137 602.843L961.844 603.583L897.896 613.942L904.557 629.184L905.002 629.332L903.373 635.399L908.11 633.327L913.291 628.74L922.173 628.444L932.387 624.744L939.344 625.78L937.716 628.296L950.446 632.587L961.4 637.915L963.916 643.834L972.058 642.058L991.301 626.372L998.407 626.668L1027.42 648.57L1033.34 647.386L1039.56 655.673L1040.74 668.843L1038.82 677.13L1039.71 681.274L1044.89 691.632L1042.52 683.493L1049.18 683.345L1049.77 689.265L1046.22 698.439L1058.51 715.309L1063.09 715.457L1059.25 710.278L1063.98 710.87L1066.8 709.094L1065.61 718.565L1071.98 723.596L1076.27 735.139L1082.04 738.691L1089.44 740.614L1099.66 753.637L1104.99 756.448L1097.88 756.892L1101.14 760.592L1112.83 756.744L1118.6 753.489L1123.93 734.843L1121.27 705.839L1120.68 702.879L1106.47 679.202L1094.33 662.036L1087.52 647.978L1093.29 652.861L1094.48 651.973L1096.99 664.256L1103.51 673.579L1097.14 661.148L1097.44 655.229L1078.34 631.996L1073.75 624.744L1067.68 612.462L1063.54 602.103L1060.28 598.404L1059.54 593.668L1059.39 593.52L1049.18 592.928L1045.18 596.036L1042.96 607.43L1040.89 602.103L971.022 610.834L965.989 602.991L966.137 602.843V602.843Z" fill="#3B82F6" stroke="white" stroke-width="0.970631" stroke-linejoin="round"/>
<path d="M1061.76 571.619L1061.61 567.179L1060.58 571.027L1061.76 571.619H1061.76ZM1063.39 564.812L1062.8 561.408L1062.35 563.48L1063.39 564.812V564.812ZM994.114 471.583L992.189 472.027L986.564 473.211L965.841 477.502L963.916 477.946L961.844 478.242L950.298 480.462L947.189 481.054L934.607 483.422L931.942 483.718L932.09 484.013L951.926 544.39L962.88 563.924L960.216 566.883L958.587 578.426L961.844 584.345L962.14 595.148L966.137 602.695V602.843L965.989 602.991L971.021 610.834L1040.89 602.103L1042.96 607.431L1045.18 596.036L1049.18 592.928L1059.39 593.52L1058.51 577.538L1060.43 574.135L1059.39 567.771L1061.47 561.704L1064.57 558.301L1062.35 556.229L1067.54 549.866H1067.39L1058.51 541.579L1046.37 524.265L1039.71 521.157L1011.14 497.184L1004.18 488.305L990.709 482.682L989.969 479.722L994.114 471.583V471.583Z" fill="#3B82F6" stroke="white" stroke-width="0.970631" stroke-linejoin="round"/>
<path d="M864.886 642.798L864.146 642.946V643.094L864.886 642.798V642.798ZM878.653 641.022H876.58L878.505 641.17L878.653 641.022H878.653ZM861.481 642.502L860.889 643.094L861.037 643.242L861.481 642.502L861.481 642.502ZM875.396 641.318H869.771L875.1 641.466L875.396 641.318ZM813.669 500.291V500.439L807.451 510.798L808.044 518.789L799.606 528.112L801.826 530.776L796.201 554.453L798.866 559.484L797.386 560.52L797.534 563.776V564.812L800.938 572.803L800.642 577.686L806.119 584.345L794.869 603.583L793.093 615.125L789.984 619.713L792.057 625.04L790.132 626.964L841.202 621.341L839.425 628.444L845.939 641.17L849.343 645.462V645.314L854.82 639.099L866.366 636.583L877.024 637.767L878.653 635.695V635.547L871.103 589.968L870.807 556.672L869.919 496L867.847 494.668L867.255 493.484H866.959L859.557 494.52L846.531 496.296L816.925 499.995L813.669 500.291L813.669 500.291Z" fill="#3B82F6" stroke="white" stroke-width="0.970631" stroke-linejoin="round"/>
<path d="M994.114 471.583L989.969 479.722L990.709 482.682L1004.18 488.305L1011.14 497.184L1039.71 521.157L1046.37 524.265L1058.51 541.579L1067.39 549.866L1068.87 543.059L1066.5 536.547L1072.86 541.283L1076.42 538.471L1070.35 533.44L1077.75 532.996L1089.3 523.229L1087.96 520.713L1095.07 515.238L1094.33 512.574L1099.51 509.319L1099.81 501.772L1107.95 486.677L1113.42 479.722L1114.02 479.426L1081.01 458.561L1068.72 460.929L1051.99 460.337L1043.7 456.045L994.558 471.583H994.114V471.583Z" fill="#3B82F6" stroke="white" stroke-width="0.970631" stroke-linejoin="round"/>
<path d="M780.511 269.884L780.215 270.624L785.84 274.175L787.616 277.727L793.537 283.35L793.389 288.085L790.132 297.408L782.731 302.736L776.07 304.067L774.738 311.763L776.958 312.798L774.738 327.893L769.261 331.296L770.297 337.067L768.964 337.659L767.78 344.171L772.517 357.341L789.392 371.547L790.872 378.354L794.129 381.758L804.787 381.166L802.863 391.081L802.123 401.736L808.488 406.915L818.554 411.354L823.883 415.498L826.843 423.933L825.215 427.041L835.725 435.624L836.169 435.772L835.281 434.884L838.241 427.929L849.639 431.036L852.452 427.781L850.231 421.269L859.557 415.794L857.041 412.242L859.261 407.211V406.767L858.669 406.619L858.817 393.449L862.074 391.081L867.699 377.911L866.514 372.139L862.814 365.184L864.886 357.341L854.524 284.386L853.044 282.758L849.195 274.027L846.087 270.771L844.754 262.189V261.893L824.771 264.704L812.781 266.184L780.511 269.884V269.884Z" fill="#3B82F6" stroke="white" stroke-width="0.970631" stroke-linejoin="round"/>
<path d="M916.103 272.991L893.455 276.986L888.274 278.022L869.919 280.982L866.07 284.089L860.297 286.753L858.077 286.605L855.412 285.273L854.524 284.385L864.886 357.341L862.814 365.184L866.514 372.139L867.699 377.91L862.074 391.08L858.817 393.448L858.669 406.619L859.261 406.767L859.853 406.619L862.074 402.475H867.55L874.212 400.255L882.501 403.363L883.389 399.959L888.126 396.408L895.232 397.444L899.08 389.897L909.59 390.784L909.442 386.493L918.768 374.211L917.288 368.587L923.801 368.439L931.794 362.076L929.87 354.825L930.166 354.529L929.87 352.013L920.988 299.627L916.992 277.282L916.547 274.914L916.103 272.991L916.103 272.991Z" fill="#3B82F6" stroke="white" stroke-width="0.970631" stroke-linejoin="round"/>
<path d="M828.916 451.31L828.471 450.126L827.583 449.83L826.991 451.753L827.139 451.901L828.768 451.753L828.916 451.31H828.916ZM930.166 354.529L929.87 354.825L931.794 362.076L923.801 368.44L917.288 368.588L918.768 374.211L909.442 386.493L909.59 390.785L899.08 389.897L895.232 397.444L888.126 396.408L883.39 399.96L882.501 403.363L874.212 400.256L867.551 402.475H862.074L859.853 406.619L859.261 406.767V407.211L857.041 412.242L859.557 415.794L850.232 421.269L852.452 427.78L849.639 431.036L838.241 427.928L835.281 434.884L836.169 435.772L836.465 436.363L835.133 448.498L834.541 448.794L830.692 451.162L830.544 451.606L834.837 451.014L864.738 447.018L863.258 441.099L868.291 440.951L928.538 432.96L970.873 425.857L971.466 425.413L972.502 424.229L983.604 418.31L992.189 407.063L993.374 403.215L998.999 398.776L1006.1 389.749L1007.14 388.269L1006.7 388.121H1003L998.258 385.457L989.821 375.247L986.86 364.888V364.592L986.564 364.296L980.347 360.744L977.535 356.009L971.91 361.484L968.357 362.372L963.916 360.597L960.067 363.556L952.074 360.005L950.002 360.892L942.452 354.381L938.604 352.458L931.35 353.345L930.166 354.529V354.529Z" fill="#3B82F6" stroke="white" stroke-width="0.970631" stroke-linejoin="round"/>
<path d="M1129.41 474.247L1127.78 475.874L1128.08 476.17L1129.41 474.247ZM1130.59 465.664L1129.85 466.848L1130.15 468.031L1130.59 465.664ZM1139.48 451.901L1137.26 453.381L1136.07 455.157L1139.48 451.901V451.901ZM1158.57 442.578L1157.68 441.987L1155.76 441.839L1158.57 442.578V442.578ZM1154.57 441.691H1153.24L1151.02 442.874L1154.57 441.691ZM1159.16 443.318L1163.46 432.664L1160.5 437.103L1159.16 443.318ZM1165.53 429.26L1167.45 426.448H1166.42L1165.53 429.26ZM1177.96 417.717L1174.71 401.292L1177.52 409.874L1177.96 417.717ZM1159.9 380.278L1159.61 380.426L1159.16 380.574H1159.31L1167.45 394.336L1173.82 400.7L1159.9 380.278L1159.9 380.278ZM1157.24 381.166L1156.06 381.462L1156.35 381.61H1158.87L1158.57 380.722L1158.13 380.87H1157.68V381.166L1157.39 381.314L1157.24 381.166V381.166ZM1020.31 414.906L1019.57 417.126L1019.72 423.489L1018.09 423.341L1014.25 431.184L1009.95 431.628L1001.96 439.471L998.406 438.139L993.818 444.946L981.679 455.897L975.758 457.377L969.541 463.148L969.245 466.995L963.768 469.955L963.916 476.466V477.946L965.84 477.502L986.564 473.211L992.189 472.027L994.114 471.583H994.558L1043.7 456.045L1051.99 460.336L1068.72 460.928L1081.01 458.56L1114.02 479.426L1114.61 478.982L1129.85 472.767L1130 464.628L1135.48 454.713L1141.4 449.09L1153.69 440.951L1155.32 437.991L1158.57 439.471L1160.05 429.704L1158.28 433.108L1152.06 435.179L1146.14 435.327L1153.39 430L1151.17 427.632L1153.69 422.305L1139.77 420.085L1139.18 419.345L1151.02 417.126L1154.87 419.049L1159.76 418.605L1163.75 415.646L1166.71 409.874L1169.38 409.135L1168.93 400.996L1165.53 397.74L1162.12 400.848L1162.86 408.691L1160.35 399.072L1158.42 398.628L1143.77 404.695L1150.28 398.332L1150.58 395.816L1157.39 394.188L1159.31 389.157L1163.9 391.821L1159.02 384.57L1155.61 381.61L1096.4 398.48L1058.65 408.099L1020.46 415.202L1020.31 414.906H1020.31Z" fill="#3B82F6" stroke="white" stroke-width="0.970631" stroke-linejoin="round"/>
<path d="M1019.57 282.758L1015.87 266.776L1015.13 263.52L1010.99 245.318L1005.66 248.722L994.262 257.453L986.86 266.48L981.087 267.368L970.429 273.435L964.508 269.883L946.597 267.812L937.123 270.179L927.798 272.399L918.028 274.471L916.547 274.915L916.992 277.283L920.988 299.628L929.87 352.013L930.166 354.529L931.35 353.345L938.604 352.457L942.452 354.381L950.002 360.892L952.074 360.005L960.067 363.556L963.916 360.596L968.357 362.372L971.91 361.484L977.535 356.009L980.347 360.744L986.564 364.296L986.86 364.592L993.226 361.484L995.446 356.601L993.67 351.57L998.703 343.874L1002.4 343.283L1001.96 336.771L1008.03 328.484L1009.06 329.668L1014.54 325.525L1019.28 318.422L1020.02 286.013L1020.31 285.865L1019.57 282.758V282.758Z" fill="#3B82F6" stroke="white" stroke-width="0.970631" stroke-linejoin="round"/>
<path d="M970.874 425.856L928.538 432.96L868.291 440.951L863.258 441.099L864.738 447.018L834.837 451.013L830.544 451.605V451.753L829.36 453.233L828.767 453.085V451.901V451.753L827.139 451.901L827.287 452.049L828.175 456.193L825.215 459.892L824.919 466.7V467.883V468.032L820.478 476.614L821.366 482.682L817.221 489.193L818.702 495.112L813.373 499.996L813.669 500.292L816.925 499.996L846.531 496.296L859.557 494.52L866.959 493.484H867.255L867.106 493.188L891.975 489.785L903.817 488.305L927.502 484.458L931.942 483.718L934.607 483.422L947.189 481.054L950.298 480.462L961.844 478.242L963.916 477.946V476.467L963.768 469.955L969.245 466.996L969.541 463.148L975.758 457.377L981.679 455.897L993.818 444.946L998.407 438.139L1001.96 439.471L1009.95 431.628L1014.25 431.184L1018.09 423.341L1019.72 423.489L1019.57 417.126L1020.31 414.906L1017.95 415.35L1009.51 417.718L999.443 419.789L974.13 424.969L971.466 425.413L970.873 425.857L970.874 425.856Z" fill="#3B82F6" stroke="white" stroke-width="0.970631" stroke-linejoin="round"/>
<path d="M1157.68 380.87H1158.13L1158.57 380.722L1158.28 379.982L1157.68 380.87V380.87ZM1152.65 364.296V365.036L1153.39 364.592L1152.65 364.296V364.296ZM1155.32 359.117L1155.17 357.933L1155.32 359.117ZM1154.43 360.893L1154.13 362.816L1153.69 363.556L1154.43 360.893ZM1155.76 357.045L1155.91 356.157L1155.61 357.045H1155.76H1155.76ZM1156.65 353.05L1157.09 352.014L1156.35 354.677L1156.65 353.05ZM1156.8 350.83L1157.39 347.574L1156.65 348.314L1156.8 350.83V350.83ZM1159.46 336.18L1159.76 334.848L1159.61 335.144L1159.46 336.18H1159.46ZM1158.87 332.776L1156.94 333.516L1153.98 334.848L1152.95 336.18L1153.39 336.328L1149.84 358.377L1151.17 361.928L1153.24 352.754L1157.09 340.767L1158.87 332.924V332.776V332.776ZM1161.83 331.592L1161.38 331.74L1161.24 332.332L1160.5 336.92L1161.09 335.292L1161.83 331.592V331.592ZM1007.14 388.269L1006.1 389.749L998.999 398.776L993.374 403.215L992.189 407.063L983.604 418.31L972.502 424.229L971.466 425.413L974.13 424.969L999.443 419.789L1009.51 417.718L1017.95 415.35L1020.31 414.906L1020.46 415.202L1058.65 408.099L1096.4 398.48L1155.61 381.61L1155.17 380.87L1155.02 380.426L1156.06 381.462L1157.24 381.166L1157.09 381.018L1156.06 375.987L1156.8 376.135L1159.16 380.574L1159.61 380.426L1159.9 380.278L1159.31 379.094L1153.24 369.771L1145.69 371.103L1142.29 373.915L1139.03 370.955L1127.93 367.256L1120.23 366.96L1135.18 365.628L1143.47 371.251L1145.84 367.552L1139.18 359.117L1143.92 359.413L1141.4 352.605L1135.48 352.901L1121.42 341.507H1119.64L1139.48 351.274L1138.14 344.466L1139.48 342.247L1129.41 338.399L1120.68 337.807L1116.38 333.96L1112.83 336.179L1111.5 325.969L1112.98 326.265L1112.68 317.978L1112.39 317.682L1112.09 317.83L1111.8 317.682L1111.06 317.09L1110.61 316.646L1105.87 314.574L1100.99 311.022L1094.18 309.247L1093.74 309.099V309.247L1092.85 315.462L1079.08 309.543L1079.38 318.126L1071.83 332.48L1067.24 337.511L1064.28 346.242L1055.25 343.135L1050.81 363.26L1047.26 370.067L1046.66 378.946L1044 383.238L1034.08 386.197L1025.94 392.561L1022.09 393.153L1018.39 396.408L1009.06 393.005L1007.44 388.417L1007.14 388.269L1007.14 388.269Z" fill="#3B82F6" stroke="white" stroke-width="0.970631" stroke-linejoin="round"/>
<path d="M848.159 173.251L844.458 177.839L842.238 184.498L843.274 188.197L848.159 173.251ZM763.192 138.475L765.412 135.368L763.784 136.848L763.192 138.475V138.475ZM766.596 133.592L765.856 132.704L764.228 133.74L766.596 133.592V133.592ZM734.326 141.879L730.922 145.727L732.55 163.484L723.076 172.067L721.3 180.354L726.481 185.09L725 205.511L730.478 209.655L734.03 209.951L745.28 216.758L752.385 224.157L761.415 228.744L763.488 240.139V240.879L767.78 246.058L766.596 250.054L768.076 258.785L772.517 264.852L780.659 269.144L780.511 269.883L812.781 266.184L824.771 264.704L844.754 261.892L844.162 259.673V252.718L840.166 245.318L839.129 235.996L841.054 225.637L840.018 217.646L843.57 207.731L842.238 206.103L842.534 196.928L844.458 189.973L842.238 187.605L837.945 189.085L835.577 195.301L829.952 198.556L831.728 190.713L836.761 184.054L837.057 181.094L837.205 180.946L830.1 173.843V163.78L822.106 157.269L811.152 156.529L799.902 153.569L775.626 146.17L770.889 143.507L770.445 143.951L762.895 142.915L760.379 144.395L761.415 133.592L749.277 139.807L734.474 142.175L734.326 141.879V141.879ZM763.34 134.036L763.044 133L762.007 133.444L763.34 134.036ZM758.011 133L758.455 132.112L758.159 131.816L758.011 133V133ZM768.817 130.484L768.372 128.413L767.928 130.928L768.817 130.484V130.484Z" fill="#3B82F6" stroke="white" stroke-width="0.970631" stroke-linejoin="round"/>
<path d="M1047.85 308.803L1026.83 313.982L1020.31 285.865L1020.02 286.014L1019.28 318.422L1014.54 325.525L1009.06 329.668L1008.03 328.484L1001.96 336.771L1002.4 343.283L998.703 343.875L993.67 351.57L995.446 356.601L993.226 361.484L986.86 364.592V364.888L989.821 375.247L998.258 385.457L1003 388.121H1006.7L1007.14 388.269L1007.44 388.417L1009.06 393.005L1018.39 396.408L1022.09 393.153L1025.94 392.561L1034.08 386.197L1044 383.238L1046.66 378.946L1047.26 370.067L1050.81 363.26L1055.25 343.135L1064.28 346.242L1067.24 337.511L1071.83 332.48L1079.38 318.126L1079.08 309.543L1092.85 315.462L1093.74 309.247V309.099L1089.44 301.7L1080.56 300.664L1075.38 304.659V307.619L1070.94 308.655L1064.43 313.242L1061.02 313.982L1054.21 323.601L1050.81 308.063L1047.85 308.803V308.803Z" fill="#3B82F6" stroke="white" stroke-width="0.970631" stroke-linejoin="round"/>
<path d="M1134.89 284.386L1135.48 286.605L1147.77 321.677L1161.83 317.534L1161.68 317.238H1161.98L1162.42 317.386L1162.72 317.238L1162.42 316.646L1158.87 307.175L1141.55 290.749L1142.29 279.354H1138.74L1136.07 281.426L1134.89 284.386H1134.89Z" fill="#3B82F6" stroke="white" stroke-width="0.970631" stroke-linejoin="round"/>
<path d="M1111.06 317.09L1111.8 317.682L1112.09 317.83L1112.39 317.682L1112.68 317.83L1113.72 318.421L1114.02 318.865V319.901L1114.31 320.493L1116.24 316.942L1114.16 315.758L1111.65 315.906L1111.06 317.09V317.09Z" fill="#3B82F6" stroke="white" stroke-width="0.970631" stroke-linejoin="round"/>
<path d="M1161.98 331L1163.01 323.009L1162.12 328.928L1161.53 331.444L1161.38 331.74L1161.83 331.592L1161.98 331V331ZM1162.72 317.238L1162.42 317.386L1162.72 318.274V320.05V317.238V317.238ZM1050.81 308.063L1054.21 323.601L1061.02 313.982L1064.43 313.242L1070.94 308.655L1075.38 307.619V304.659L1080.56 300.664L1089.44 301.7L1093.74 309.099L1094.18 309.247L1100.99 311.023L1105.87 314.574L1110.61 316.646L1111.06 317.09L1111.65 315.906L1114.16 315.758L1116.24 316.942L1114.31 320.493V320.641L1111.5 329.224L1120.68 335.144L1129.85 335.588L1135.92 338.399L1133.41 331.296L1125.56 328.632L1123.64 322.565L1128.52 329.076L1132.52 329.668L1128.97 326.117L1126.15 315.61L1126.89 309.543L1123.79 302.884L1127.04 300.22L1129.41 291.637L1128.52 304.363L1131.04 308.655L1133.41 303.624L1134.74 311.911L1132.22 317.978L1139.48 320.641L1133.26 322.713L1136.52 328.78L1141.84 330.556L1144.81 325.377L1144.51 332.628L1149.54 332.48L1152.8 336.18H1152.95L1153.98 334.848L1156.94 333.516L1158.87 332.776L1158.72 332.48L1162.57 321.085V320.641L1161.83 317.682V317.534L1147.77 321.677L1135.48 286.605L1134.89 284.386L1132.37 285.126L1121.86 288.381L1063.98 304.511L1053.47 307.323L1050.81 308.063V308.063Z" fill="#3B82F6" stroke="white" stroke-width="0.970631" stroke-linejoin="round"/>
<path d="M1169.97 283.794L1169.23 282.018V283.794H1169.97ZM1171.45 278.318L1171.89 273.879L1171.01 277.726L1171.45 278.318V278.318ZM1165.38 232.888L1149.84 229.04L1147.17 228.3L1144.66 227.708L1138.44 241.471L1141.1 244.726L1140.96 254.641L1143.77 255.085L1149.54 270.179L1149.25 270.623L1141.99 281.278L1142.73 289.417L1160.2 295.336L1160.35 302.143L1164.34 296.52L1164.94 288.381L1169.08 285.57L1167.45 279.502L1170.56 272.251V256.417L1169.53 251.238L1162.57 251.386L1164.34 244.283L1165.38 232.888V232.888Z" fill="#3B82F6" stroke="white" stroke-width="0.970631" stroke-linejoin="round"/>
<path d="M1164.94 244.874L1162.72 247.982L1162.12 248.87L1164.94 244.874ZM1185.36 237.623L1192.77 231.112V230.816L1185.36 237.623ZM1165.97 242.211V237.179L1165.53 239.843L1165.97 242.211ZM1200.32 218.533L1198.54 218.09L1198.24 219.421L1200.32 218.533ZM1204.31 215.87L1204.16 217.35L1204.46 216.462L1204.31 215.87H1204.31ZM1200.17 216.018L1190.25 225.193L1175 231.704L1171.01 235.108L1170.71 238.363L1166.57 241.767L1167.16 246.206L1173.52 243.691L1182.85 236.143L1193.21 230.668L1208.9 215.87L1197.8 224.305L1194.25 225.785L1200.17 216.018V216.018ZM1204.76 209.803L1205.35 208.915L1203.57 210.986L1204.76 209.803ZM1038.37 204.327L1036.01 204.031L1037.78 206.399L1038.37 204.327ZM1087.52 159.045L1087.81 157.417L1086.63 158.897L1087.52 159.045V159.045ZM1088.26 148.39L1087.67 148.686L1086.93 150.314L1088.26 148.39ZM1025.64 232.444L1026.68 236.883L1034.53 238.807L1079.53 226.525L1124.82 212.91L1133.11 219.273L1134.74 222.973L1144.36 227.117L1144.66 227.708L1147.17 228.3L1149.84 229.04L1165.38 232.888L1165.08 232.148L1166.42 238.215L1169.38 237.475L1171.01 230.816V230.668L1168.34 228.152L1172.19 223.417L1170.41 221.197L1164.79 199.444L1164.49 197.964L1163.75 197.52L1163.31 191.009L1162.86 183.906L1162.42 176.211V175.767L1162.12 175.915L1154.72 151.646L1146.88 139.363L1144.66 124.713L1138 109.175L1137.11 109.619L1106.17 119.977L1099.95 126.637L1093 139.955L1093.29 142.915L1084.11 156.825L1089.74 158.749L1091.37 169.256L1084.85 177.839L1065.31 189.677L1061.61 188.197L1047.11 190.269L1033.64 198.408L1034.38 202.699L1039.11 206.843L1036.45 219.865L1025.79 232.296L1025.64 232.444V232.444Z" fill="#3B82F6" stroke="white" stroke-width="0.970631" stroke-linejoin="round"/>
<path d="M1144.36 227.117L1134.74 222.973L1133.11 219.274L1124.82 212.91L1079.53 226.525L1034.53 238.807L1026.68 236.883L1025.64 232.444L1023.13 234.368L1019.13 237.179L1011.88 244.579L1010.99 245.318L1015.13 263.52L1015.87 266.776L1019.57 282.758L1020.31 285.866L1026.83 313.982L1047.85 308.803L1050.81 308.063L1053.47 307.323L1063.98 304.511L1121.86 288.381L1132.37 285.126L1134.89 284.386L1136.07 281.426L1138.74 279.354H1142.29L1142.73 278.023L1148.51 271.511L1149.1 270.475L1149.54 270.179L1143.77 255.085L1140.96 254.641L1141.1 244.727L1138.44 241.471L1144.66 227.709L1144.36 227.117V227.117Z" fill="#3B82F6" stroke="white" stroke-width="0.970631" stroke-linejoin="round"/>
<path d="M1215.71 148.242H1215.56L1215.86 148.39L1215.71 148.242H1215.71ZM1226.66 116.722L1225.48 114.946V115.834L1226.66 116.722ZM1224.59 115.094V113.614L1224.44 112.727L1224.59 115.094ZM1229.92 108.879L1229.62 108.731L1229.77 109.175L1229.92 108.879L1229.92 108.879ZM1244.72 101.48L1244.43 99.2602L1243.84 100.296L1244.72 101.48ZM1241.02 102.368L1241.17 100.74L1239.39 101.036L1241.02 102.368V102.368ZM1246.5 97.4844H1245.91V97.7804L1246.5 97.4844ZM1239.1 99.7041L1237.77 99.4082L1237.62 100.74L1239.1 99.7041V99.7041ZM1246.65 95.1167L1247.98 96.1525L1247.54 94.9687L1246.65 95.1167V95.1167ZM1242.65 95.2646L1241.32 97.7804L1243.1 96.8925L1242.65 95.2646ZM1236.29 95.4126L1235.69 96.3005L1236.14 97.6324L1236.29 95.4126V95.4126ZM1245.02 90.5292L1244.87 89.3454L1244.43 90.0853L1245.02 90.5292H1245.02ZM1244.28 91.1212L1242.95 89.9373V90.9732L1244.28 91.1211V91.1212ZM1235.99 94.5247L1235.69 92.8969L1235.1 94.2288L1235.99 94.5247ZM1250.05 89.3454L1247.83 92.601L1247.68 90.2333L1250.05 89.3454V89.3454ZM1260.86 79.4306L1259.82 77.9507L1259.23 78.2467L1260.86 79.4306ZM1264.86 72.7714L1263.97 72.3274L1263.82 72.7714H1264.86V72.7714ZM1266.78 61.2288H1265.45L1266.93 61.6727L1266.78 61.2288H1266.78ZM1269 62.7086L1268.56 60.0449L1267.37 59.8969L1269 62.7086V62.7086ZM1266.63 60.3409L1266.34 57.5292L1265.3 59.453L1266.63 60.3409ZM1180.78 83.5741L1202.24 133.888L1202.54 134.924L1211.86 146.318V146.17L1213.34 145.726L1213.64 137.291L1216.01 134.332L1217.49 126.489L1216.15 125.157L1218.67 117.462L1227.26 113.466L1232.88 106.659L1234.95 94.8206L1243.98 94.2287L1242.8 88.1614L1254.05 83.87L1254.79 77.2108L1257.45 77.8027L1264.86 71.7354L1268.11 63.8924L1260.56 56.3453L1252.57 54.7175L1249.61 48.6502V45.0987L1244.72 46.5785L1239.25 44.6547V38.5874L1224.44 6.62332L1213.64 1L1201.65 11.0628L1198.39 10.4709L1195.58 5.29148L1191.73 6.7713L1186.25 34L1188.18 42.8789L1189.81 60.9327L1185.51 74.8431L1188.47 77.0628L1184.92 83.87L1181.07 83.278L1180.78 83.574V83.5741Z" fill="#3B82F6" stroke="white" stroke-width="0.970631" stroke-linejoin="round"/>
<path d="M869.771 178.43L869.031 177.246L868.883 178.726L869.771 178.43V178.43ZM872.139 175.767L870.363 173.399L870.067 174.435L872.139 175.767ZM873.62 165.112L872.139 163.78V164.076L873.62 165.112ZM869.919 280.982L888.274 278.022L893.455 276.986L916.103 272.991L916.547 274.915L918.028 274.471L927.798 272.399L937.123 270.179L946.597 267.812L946.449 267.368L951.334 257.749L950.89 249.758L956.367 235.995L960.66 238.511L962.288 235.403L961.844 223.565L957.847 216.166L951.926 200.48L946.745 194.708L944.08 193.968L934.459 200.628L935.495 201.959L930.462 211.43L925.577 210.542L924.097 200.628L926.169 199.888L930.462 189.973L930.906 172.511L924.245 157.713L909.442 155.197L907.962 152.977L894.195 148.982L887.978 156.677L888.57 163.336L883.833 169.255L884.87 178.43L880.281 181.686V170.143L876.136 178.874L871.251 186.569L867.995 189.085L869.623 197.224L867.55 205.659L868.735 216.166L867.254 221.345L877.912 241.767L879.245 249.61L877.912 264.112L870.807 280.39L869.919 280.982V280.982ZM901.597 147.65L897.748 147.946L900.117 149.722L901.597 147.65ZM879.097 151.498H877.912L879.245 152.09L879.097 151.498H879.097ZM905.001 132.704L903.521 130.336L902.929 130.484L905.001 132.704V132.704ZM770.889 143.507L775.626 146.17L799.902 153.569L811.152 156.529L822.106 157.269L830.1 163.78V173.843L837.205 180.946V180.798L842.978 164.076L849.935 159.193L855.264 153.273L856.152 158.601L861.63 150.166L874.804 145.134L875.84 143.063L889.163 144.69L894.343 147.354L896.86 140.843L899.228 142.323L909.59 140.695L907.074 136.551L902.485 133.888L903.373 124.269L894.343 129.3L886.054 128.264L883.389 121.901L884.278 119.829L873.028 125.157L865.774 125.601L852.748 133.592L851.268 136.551L843.274 134.628L838.241 136.847L828.175 128.116L805.823 121.309L805.379 118.646L791.021 132.408L782.879 134.48L771.333 143.211L770.889 143.507V143.507ZM823.291 109.915L805.971 118.498L811.744 124.121L813.965 118.498L819.886 111.246L823.291 109.915V109.915ZM803.899 89.6411L792.057 97.7801L791.465 101.776L800.79 94.9685L803.899 89.6411V89.6411Z" fill="#3B82F6" stroke="white" stroke-width="0.970631" stroke-linejoin="round"/>
<path d="M97.4709 680.834C97.7388 681.513 98.1104 682.149 98.5859 682.743C98.3738 681.601 97.5375 680.56 96.5367 679.834C96.8478 680.166 97.1595 680.5 97.4709 680.834Z" fill="#3B82F6" stroke="white" stroke-miterlimit="3.97447"/>
<path d="M1.54493 634.589C0.552646 635.18 1.0446 636.5 1.98969 637.459C2.32714 636.522 1.20889 635.528 1.54493 634.589Z" fill="#3B82F6" stroke="white" stroke-miterlimit="3.97447"/>
<path d="M30.6523 643.654C30.245 644.396 29.0344 646.836 30.9147 647.526C31.1162 646.376 31.5587 644.987 30.6523 643.654Z" fill="#3B82F6" stroke="white" stroke-miterlimit="3.97447"/>
<path d="M58.8016 682.65C58.7813 683.368 59.2322 683.668 59.9072 683.558C59.6468 684.281 60.0365 685.057 60.7766 685.555C58.5229 683.309 60.708 680.217 60.1242 677.923C60.3983 679.66 59.532 681.31 58.8016 682.65Z" fill="#3B82F6" stroke="white" stroke-miterlimit="3.97447"/>
<path d="M50.2651 636.535C50.1652 635.422 47.981 630.68 46.502 630.607C44.2462 630.5 49.7974 636.215 50.2651 636.535Z" fill="#3B82F6" stroke="white" stroke-miterlimit="3.97447"/>
<path d="M61.2935 685.827C62.1697 686.546 62.9851 687.448 64.126 687.548C63.5655 686.503 62.4235 685.693 61.2935 685.827Z" fill="#3B82F6" stroke="white" stroke-miterlimit="3.97447"/>
<path d="M58.3143 639.496C59.3282 637.926 58.4433 635.889 58.7065 634.033C56.2089 634.404 57.0307 636.767 56.029 638.386C56.7837 638.779 57.5455 639.149 58.3143 639.496Z" fill="#3B82F6" stroke="white" stroke-miterlimit="3.97447"/>
<path d="M70.532 669.082C69.3056 669.252 69.184 670.408 69.5259 671.545C69.637 670.592 70.9337 670.25 70.532 669.082Z" fill="#3B82F6" stroke="white" stroke-miterlimit="3.97447"/>
<path d="M73.6943 679.561C73.7021 680.515 74.1207 681.469 74.7998 682.287C75.8386 681.448 74.8006 680.138 73.6943 679.561Z" fill="#3B82F6" stroke="white" stroke-miterlimit="3.97447"/>
<path d="M82.4045 690.358C82.4129 689.628 81.9642 688.911 81.2847 688.456C81.4226 689.186 81.7959 689.82 82.4045 690.358Z" fill="#3B82F6" stroke="white" stroke-miterlimit="3.97447"/>
<path d="M98.1869 680.288C97.9781 681.015 98.2519 681.62 99.0079 682.105C99.057 681.416 98.7834 680.81 98.1869 680.288Z" fill="#3B82F6" stroke="white" stroke-miterlimit="3.97447"/>
<path d="M111.864 716.763C111.915 717.533 112.496 718.04 113.279 718.019C113.159 717.3 112.614 716.781 111.864 716.763Z" fill="#3B82F6" stroke="white" stroke-miterlimit="3.97447"/>
<path d="M12.7531 597.08C20.2995 596.299 27.7329 595.252 35.5323 595C35.2449 595.797 34.6401 596.398 34.653 597.363C45.2921 601.526 56.1508 604.571 66.6777 609.254C72.1685 611.697 77.7965 610.63 82.8307 610.63C85.4699 610.63 88.109 610.63 90.7482 610.63C92.2743 610.63 95.5987 611.302 96.69 610.513C98.1452 609.456 96.4974 606.918 97.9458 605.851C99.2202 604.914 102.495 605.56 104.269 605.56C106.778 605.56 109.261 605.461 111.779 605.492C114.094 605.521 114.729 606.525 115.926 608.361C116.928 609.899 118.979 610.242 120.288 611.78C121.423 613.114 123.371 615.375 124.834 616.232C126.215 617.041 128.073 617.668 128.822 619.222C129.905 621.468 130.41 623.398 130.744 625.608C131.484 630.5 136.408 632.658 140.464 634.958C141.878 635.76 144.199 637.463 145.435 636.549C146.326 635.889 147.291 634.755 147.547 633.606C147.876 632.126 148.712 629.771 149.758 628.746C150.417 628.101 152.138 627.861 152.995 627.401C153.933 626.897 156.203 627.823 157.396 627.839C158.649 627.855 159.99 628.044 161.28 628.291C162.083 628.443 163.58 630.442 164.503 631.126C166.015 632.243 168.129 634.746 168.874 636.315C169.881 638.437 171.154 640.666 171.868 642.832C172.614 645.106 174.443 646.473 175.742 648.538C176.338 649.482 176.922 650.431 177.643 651.314C178.209 652.007 178.883 651.982 179.393 652.571C180.643 654.014 180.053 656.338 180.458 657.87C180.968 659.795 182.842 661.162 183.166 663.256C183.218 663.591 183.98 665.336 183.977 665.333C184.638 665.834 185.618 665.783 186.303 665.888C187.31 666.043 187.948 666.759 188.894 667.162C189.581 667.452 190.332 667.419 191.001 667.801C192.001 668.373 191.549 669.065 192.946 669.111C195.193 669.189 196.932 669.254 199.031 670.773C200.943 672.161 201.174 670.284 202.805 670.268C201.897 675.257 199.045 679.391 197.998 684.371C197.781 685.411 197.355 694.259 195.983 694.067C197.703 696.122 196.428 699.067 196.602 701.201C196.775 703.855 195.42 705.999 195.737 708.719C196.062 711.503 196.796 714.02 198.861 716.33C201.08 718.812 200.239 718.708 199.628 721.244C199.346 720.244 200.38 718.833 199.614 718.004C198.163 716.434 197.594 714.602 196.405 712.902C197.076 714.466 196.699 716.129 197.567 717.659C198.349 719.036 199.075 719.178 199.463 720.85C200.271 724.337 202.3 727.949 204.571 730.866C207.177 734.217 208.341 736.915 209.857 740.637C210.492 742.195 211.857 743.352 212.628 744.838C213.294 746.122 213.648 747.297 215.168 747.914C214.399 747.857 213.716 746.96 213.278 747.471C214.981 747.898 213.673 749.932 213.249 750.58C214.769 750.509 213.135 748.91 214.419 748.664C214.901 748.693 215.156 748.473 215.183 748.004C216.111 748.472 217.118 748.531 218.073 748.569C221.169 748.693 223.989 750.248 225.827 752.822C227.389 755.007 228.619 754.83 231.039 754.214C232.56 753.826 235.2 753.302 236.194 752.088C235.264 752.317 234.349 752.612 233.539 753.066C234.685 752.324 244.192 750.106 244.717 751.467C243.746 748.981 251.019 747.639 252.319 749.603C250.269 749.253 252.542 750.948 252.401 751.822C252.985 751.261 253.57 751.53 254.341 751.467C254.836 751.567 255.33 751.626 255.822 751.646C255.889 751.297 256.006 750.97 256.173 750.666C257.214 750.233 259.379 747.84 256.55 747.65C257.086 747.15 257.647 746.676 258.232 746.228C257.421 746.754 256.628 747.309 255.746 747.74C256.567 745.912 258.952 745.219 260.565 744.203C262.814 742.787 262.46 740.724 263.229 738.453C263.628 737.269 264.602 736.715 265.24 735.719C265.883 734.715 265.465 733.339 265.413 732.157C265.288 729.326 266.488 727.275 266.766 724.65C266.62 725.008 266.428 725.336 266.191 725.634C267.027 721.625 272.711 720.858 276.331 720.444C278.942 720.145 280.959 719.446 283.325 718.54C286.417 717.355 289.414 718.705 292.717 719.008C292.127 718.784 291.53 718.665 290.928 718.649C292.349 718.277 293.929 719.172 295.354 719.547C292.968 719.08 296.741 717.617 298.439 718.328C300.972 719.39 300.688 722.382 300.219 724.27C299.597 726.772 297.693 728.145 296.142 730.004C295.329 730.979 294.373 732.202 294.101 733.497C293.948 734.223 294.891 737.168 293.865 735.548C294.454 736.996 292.092 738.278 292.136 739.737C296.581 739.189 291.188 741.977 292.419 743.386C292.597 742.719 293.113 742.223 293.88 742.229C292.892 743.963 292.855 746.101 292.183 747.972C291.634 749.501 290.34 752.508 290.533 754.221C288.06 751.92 289.401 750.169 288.527 747.652C287.266 748.611 287.356 748.647 286.831 749.948C286.407 750.998 285.486 750.959 284.617 751.476C282.773 752.572 281.817 755.686 281.075 757.59C280.348 756.924 278.195 755.656 277.919 757.259C277.708 758.493 277.587 758.21 275.811 758.21C271.91 758.21 268.011 758.21 264.11 758.21C263.225 758.21 260.64 757.628 260.666 758.951C260.676 760.027 260.883 761.157 260.928 762.241C261.048 765.127 258.77 764.229 256.45 764.229C258.285 765.857 259.611 767.886 261.91 768.914C263.922 769.814 263.891 772.063 265.813 772.999C266.463 773.317 266.181 776.371 265.67 776.768C264.865 777.392 261.359 776.768 260.361 776.768C258.503 776.768 255.759 776.282 254.113 777.074C252.511 777.845 251.101 779.896 250.668 781.494C250.285 782.91 248.797 784.94 250.156 786.706C250.693 787.401 249.435 792.099 248.846 792.873C247.864 791.809 246.779 790.838 245.794 789.775C245.224 789.158 242.313 784.827 244.234 787.159C243.721 785.877 242.038 785.371 241.044 784.523C239.585 783.277 238.47 781.743 236.922 780.519C233.815 778.064 232.01 775.773 228.099 774.564C228.051 775.956 231.675 776.584 232.5 777.562C230.163 776.455 227.754 775.369 225.238 775.446C225.865 775.199 226.325 774.681 226.486 774.035C225.73 773.929 225.16 774.165 224.776 774.741C224.651 772.587 222.687 773.265 222.618 774.828C223.278 774.761 223.928 774.879 224.568 775.182C221.232 775.402 219.883 777.381 216.955 778.276C214.312 779.084 212.195 780.304 209.468 780.84C207.409 781.245 206.469 780.99 204.231 779.897C201.743 778.68 200.263 778.515 197.638 778.119C196.267 777.914 195.353 777.237 194.243 776.387C192.829 775.304 191.566 775.074 189.969 774.532C188.675 774.094 188.254 773.076 187.218 772.309C185.955 771.374 183.948 771.188 182.512 770.844C181.094 770.503 179.504 770.369 178.135 769.761C176.701 769.122 175.546 768.046 174.061 767.443C170.629 766.051 167.264 765.264 164.095 763.124C161.48 761.356 159.814 758.878 157.398 757.009C156.452 756.277 155.444 756.57 154.513 756.753C153.113 757.031 150.482 756.024 149.035 755.551C146.63 754.766 143.326 753.698 141.51 751.722C140.61 750.744 139.915 749.652 139.116 748.61C137.757 746.835 136.245 746.77 134.481 745.698C133.851 744.05 129.478 743.206 127.765 741.903C126.865 741.219 126.901 740.129 126.008 739.39C125.003 738.56 123.865 736.639 123.175 735.546C122.366 734.264 120.613 730.738 122.071 729.748C123.084 729.06 124.472 729.432 125.254 728.372C125.986 727.38 123.793 726.553 123.071 726.71C123.251 725.372 127.295 720.882 125.638 719.226C124.111 717.689 123.483 716.795 122.486 714.91C121.413 712.882 122.007 711.322 121.42 709.293C120.157 704.933 115.274 701.285 112.54 697.466C109.377 693.051 106.262 689.785 101.668 686.648C102.842 687.112 103.988 688.432 104.163 686.739C102.471 686.933 99.1789 685.315 99.4964 683.433C99.7253 682.078 99.0788 678.164 96.7871 679.201C96.4667 677.591 96.4666 678.809 95.2039 678.212C94.3423 677.802 93.5464 677.115 92.6406 676.836C93.8072 677.059 93.8876 676.982 92.8791 676.605C92.2655 676.039 92.2287 675.22 91.5606 674.65C91.0962 675.152 90.5256 675.517 89.8477 675.743C89.3516 674.59 90.7294 674.491 90.6801 673.464C89.5401 674.734 88.6735 673.965 86.8349 673.555C87.1362 673.35 87.431 673.137 87.7191 672.917C86.7688 672.242 86.4067 672.424 86.6327 673.464C86.3225 672.144 86.1327 670.838 86.4098 669.659C86.5135 669.221 87.3371 666.218 87.5947 667.899C87.7441 667.195 88.1784 665.865 89.0743 666.985C88.9783 666.029 88.5992 665.215 87.6708 665.98C87.8058 664.801 87.1839 663.287 85.7762 662.569C84.6611 662.001 83.9582 663.018 82.6634 662.104C81.2592 661.111 81.6768 658.066 80.2012 657.7C79.1767 657.447 76.0151 657.117 75.5381 655.775C75.0303 654.352 73.4897 649.533 75.3274 649.558C74.4191 649.455 72.2249 649.14 72.2879 648.359C71.9932 648.71 71.8431 649.14 71.8387 649.649C71.3832 648.288 69.4775 648.21 68.5066 647.319C67.6757 646.553 67.0954 645.251 66.4721 644.358C65.8278 643.44 64.7585 643.395 64.0055 642.641C62.8435 641.476 62.443 639.351 61.263 638.371C59.2167 636.671 59.9074 635.056 58.8092 633.108C57.5523 634.371 57.0272 630.841 56.5847 630.045C55.1174 627.403 54.6546 625.886 54.0371 623.233C53.5332 621.063 51.408 619.091 51.2711 616.919C51.2091 615.911 52.0786 613.373 51.4546 612.601C50.4304 611.335 48.3588 611.35 47.1169 610.964C45.1019 610.337 46.4925 607.956 43.6144 607.756C42.6341 607.689 42.6761 608.801 41.5741 608.72C40.5193 608.64 39.3661 607.824 38.4568 607.095C36.5393 605.553 34.6065 605.083 32.618 603.494C33.1921 604.686 34.9667 605.79 34.9531 607.019C34.9351 608.537 34.4931 610.206 34.3311 611.704C34.1654 613.218 35.8581 614.707 36.017 616.253C36.1925 617.95 36.5985 619.716 36.446 621.335C36.0718 625.273 38.2855 626.818 41.6362 629.713C44.6768 632.34 45.8391 634.192 46.6929 637.557C47.9136 636.354 49.5304 639.204 50.0657 640.228C50.347 640.766 50.6175 641.851 51.1851 642.259C51.6425 642.588 53.1798 642.913 53.068 643.644C52.8072 645.328 53.7305 649.932 55.6568 651.338C58.2558 653.236 59.032 656.628 61.8619 658.011C60.7843 659.039 62.9697 662.339 63.5109 663.783C64.2039 662.977 63.058 661.026 62.5622 660.028C67.4925 660.818 68.0514 675.729 71.0376 675.014C71.1039 676.522 71.3339 678.267 72.0919 679.746C72.8921 681.308 74.3139 682.151 73.4845 683.797C72.4083 685.934 74.2687 689.957 77.3194 689.638C75.2891 689.845 77.132 689.912 77.3348 689.507C77.5809 689.014 77.491 688.384 77.7943 687.915C78.5169 689.093 80.7791 690.746 81.9146 691.533C82.5388 691.966 82.9575 694.672 83.4482 695.427C84.5622 697.139 87.3003 698.344 85.4635 700.413C84.7327 701.233 81.9482 703.806 80.6358 703.273C78.9117 702.57 79.048 699.072 78.1199 697.737C77.4399 696.757 76.4224 696.032 75.4583 695.338C73.9014 694.218 72.859 692.585 71.4505 691.31C69.3956 689.451 66.6008 688.641 64.7622 686.479C63.22 684.665 60.1598 683.607 60.3168 681.019C60.2762 681.64 60.1866 682.245 60.0477 682.834C59.2399 677.589 62.9268 674.238 58.8546 668.786C57.2 666.678 54.8183 666.409 52.8684 664.452C51.9787 663.558 50.607 662.165 50.2248 661.038C49.9507 660.227 50.8543 660.037 50.284 659.112C49.9258 659.813 50.2746 661.193 49.4693 661.586C48.6499 661.987 47.6178 661.155 46.8626 661.853C46.2518 662.419 45.3976 661.203 45.0239 660.69C44.1278 659.459 43.0768 659.243 41.87 658.469C41.5672 658.091 41.2283 657.747 40.8508 657.433C40.2721 657.306 39.6916 657.162 39.1108 657.001C37.9135 656.285 38.2565 655.894 37.7797 654.942C36.6455 652.677 33.0132 652.289 32.0727 649.739C34.351 649.959 37.5062 651.143 38.9281 649.463C39.5814 651.853 43.6496 651.223 43.1802 653.695C44.0375 652.821 43.6912 649.811 42.1567 648.82C42.3408 649.386 42.5431 651.682 41.2589 651.136C40.5026 650.814 40.8388 648.938 40.7485 648.451C40.4654 648.657 40.1927 648.872 39.9268 649.096C40.299 646.735 43.0394 644.473 40.7655 641.532C38.3979 638.471 35.5397 634.488 32.1056 632.424C29.2791 630.724 27.0039 629.363 25.5368 626.393C24.9858 625.277 25.5098 624.476 25.4226 623.415C25.3086 622.021 23.7953 621.42 24.2024 620.643C23.993 620.914 23.7587 621.163 23.4996 621.389C22.1234 618.882 24.3575 617.777 21.5498 615.45C20.2511 614.383 21.1055 613.561 20.6546 612.415C20.0486 610.874 18.4174 609.86 17.6307 608.441C17.0437 607.381 17.2887 606.514 17.7363 605.849C18.1281 605.265 16.9266 604.337 16.4423 603.762C15.9961 603.385 15.5787 602.981 15.191 602.553C15.0823 601.926 14.9619 601.3 14.8283 600.669C14.0573 599.308 12.579 598.546 12.7531 597.08Z" fill="#3B82F6" stroke="white" stroke-miterlimit="3.97447"/>
<path d="M252.467 749.426C253.792 749.705 254.446 748.396 255.525 748.094C254.308 747.925 253.346 748.914 252.467 749.426Z" fill="#3B82F6" stroke="white" stroke-miterlimit="3.97447"/>
<path d="M298.533 732.155C299.607 731.214 300.586 729.988 301 728.581C300.009 729.606 297.281 729.691 298.533 732.155Z" fill="#3B82F6" stroke="white" stroke-miterlimit="3.97447"/>
</svg>
