<svg width="1542" height="794" viewBox="0 0 1542 794" fill="none" xmlns="http://www.w3.org/2000/svg">
<path d="M1366.22 201.072L1365.77 200.776V201.22L1366.22 201.072V201.072ZM1361.78 197.076L1362.81 196.632V196.04L1361.78 197.076ZM1380.13 185.534L1379.98 183.462L1379.69 182.278L1380.13 185.534H1380.13ZM1315.44 170.291L1314.41 170.735L1305.97 173.251L1303.01 174.287L1299.6 175.323L1298.42 175.767V176.211L1298.86 183.906L1299.31 191.009L1299.75 197.52L1300.49 197.964L1303.16 197.224L1315.15 193.673L1315.44 194.413L1336.76 186.274L1336.91 186.569L1338.83 185.83L1345.64 183.166L1352.15 191.009L1353.04 190.269L1353.49 188.049L1353.34 191.601H1354.82L1355.26 193.377L1356.6 195.892L1363.55 187.457L1369.33 189.381L1370.66 186.421L1380.13 181.39L1376.13 173.547L1377.17 178.578L1372.29 182.278L1366.81 182.722L1355.86 171.031L1350.97 163.632L1355.86 158.453L1350.82 158.157L1348.75 153.274L1348.6 152.978L1340.16 162.152L1321.51 168.368L1315.44 170.291Z" fill="#3B82F6" stroke="white" stroke-width="0.970631" stroke-linejoin="round"/>
<path d="M759.602 80.3185L762.562 90.8252L768.78 128.709L771.74 143.803L772.628 157.121L776.033 165.112L776.773 171.919L777.365 174.139L777.217 174.583L771.296 184.35L775.145 190.861L782.546 242.951L782.842 249.758L790.243 249.314L819.405 247.686L892.234 241.619L899.487 240.879V240.139L897.415 228.745L888.385 224.157L881.28 216.758L870.03 209.951L866.477 209.655L861 205.511L862.481 185.09L857.3 180.354L859.076 172.067L868.55 163.484L866.921 145.727L870.326 141.879L881.872 129.745L895.047 112.875L900.08 109.323L908.961 105.031L918.287 98.0763L912.07 99.2602L908.369 96.4485L894.158 98.3723L891.938 95.7086L879.208 100.888L868.994 96.5965L866.181 93.1929L858.04 93.7849L852.563 90.9732L854.339 88.9014L847.382 86.6817H841.165L831.247 90.9732L829.323 88.0136L813.632 85.7938L808.303 72.4754L807.711 68.4799L800.901 66.5562L801.493 77.9508L783.434 79.2826L761.082 80.1705L759.602 80.3185L759.602 80.3185Z" fill="#3B82F6" stroke="white" stroke-width="0.970631" stroke-linejoin="round"/>
<path d="M617.94 78.9863L568.943 75.7307L533.269 72.3271L497.742 68.1836L475.686 65.224L440.456 59.7486L422.84 56.789L383.465 49.2419L379.32 48.354L372.955 78.5424L375.768 84.0177L377.988 92.4527L376.656 93.6365L379.468 101.332L383.317 104.587L394.271 122.937L395.307 126.045L399.748 125.749L394.567 150.018L392.495 150.61L389.682 158.749L404.337 159.785L405.521 166.592L413.811 186.865L415.291 188.049L421.064 199.888L422.544 198.704L434.831 198.556L450.373 200.184L454.222 195.152L458.811 203.439L459.699 203.883L459.847 202.995L461.92 188.493L512.545 194.708L552.956 198.556L574.272 200.332L612.315 202.551L614.239 202.699H614.683L614.832 200.628L615.276 190.417L615.868 176.95L616.016 173.547L616.312 167.628L618.68 121.161L620.605 85.0536L620.753 79.1343L617.94 78.9863L617.94 78.9863Z" fill="#3B82F6" stroke="white" stroke-width="0.970631" stroke-linejoin="round"/>
<path d="M756.493 80.3184L711.789 81.2063L680.556 81.0583L653.763 80.4664L622.381 79.2825L620.753 79.1345L620.604 85.0538L618.68 121.161L616.312 167.628L616.016 173.547L621.789 173.843L687.069 175.619L747.316 175.175L772.332 174.435L777.365 174.139L776.773 171.919L776.033 165.112L772.628 157.121L771.74 143.803L768.78 128.709L762.562 90.8251L759.602 80.3184H756.493L756.493 80.3184Z" fill="#3B82F6" stroke="white" stroke-width="0.970631" stroke-linejoin="round"/>
<path d="M379.172 48.3539L365.998 45.6903L361.705 44.6544L359.781 44.2104L342.61 121.457L343.35 127.82L342.758 134.48L343.054 135.959V136.107L343.202 138.919L348.235 144.394L340.981 162.596L325.587 182.722L325.142 186.421L329.139 195.892L315.077 254.197L314.484 257.305L318.629 258.193L360.521 266.48L377.248 269.587L381.541 270.327L385.686 271.067L407.001 274.471L445.192 280.242L449.485 280.834L450.077 275.95L451.41 266.332L456.442 227.856L459.107 208.767L459.699 203.883L458.811 203.439L454.222 195.152L450.373 200.184L434.83 198.556L422.544 198.704L421.064 199.888L415.291 188.049L413.811 186.865L405.521 166.592L404.337 159.785L389.682 158.749L392.495 150.61L394.567 150.018L399.748 125.749L395.307 126.045L394.271 122.937L383.317 104.587L379.468 101.332L376.656 93.6366L377.988 92.4527L375.768 84.0177L372.955 78.5424L379.32 48.354H379.172V48.3539Z" fill="#3B82F6" stroke="white" stroke-width="0.970631" stroke-linejoin="round"/>
<path d="M200.8 85.2016L200.948 82.6859L200.652 82.8339L200.8 85.2016H200.8ZM232.329 71.7352L233.218 70.2554L232.181 70.1074L232.329 71.7352H232.329ZM229.517 69.0715L230.405 66.1119L229.517 65.8159V69.0715ZM240.323 64.7801L240.175 61.8204L237.658 65.668L240.323 64.7801H240.323ZM240.619 58.5648L241.063 55.6052L240.767 54.8653L240.619 58.5648H240.619ZM241.063 44.0626L240.915 42.4348L240.323 42.2868L241.063 44.0626H241.063ZM245.8 34.2958L244.468 34.1478L241.803 38.2913L245.8 34.2958ZM242.099 30.3002L242.839 29.7083L242.987 29.2644L242.099 30.3002H242.099ZM241.359 30.7442L240.915 27.7846L239.583 30.3002L241.359 30.7442ZM240.619 26.6007L239.287 26.0088L240.323 27.4886L240.619 26.6007ZM245.06 29.1164V27.1926L244.616 27.9325L245.06 29.1164ZM246.392 27.1926L245.8 26.7487H245.652L246.392 27.1926H246.392ZM237.954 23.937L237.214 23.3451L236.918 23.1971L237.954 23.937V23.937ZM243.431 23.3451L239.435 24.381L240.471 24.6769L243.431 23.3451ZM240.175 23.0491L239.435 22.1612L239.287 22.3092L240.175 23.0491H240.175ZM243.283 21.2733H242.691L243.431 21.5693L243.283 21.2733H243.283ZM214.27 97.1881L219.599 102.959L218.711 114.058L219.747 116.87L227.741 121.161L250.241 123.233L251.129 125.897L261.787 126.045L271.853 127.377L288.284 125.601L296.425 126.933L298.646 125.897L340.241 135.368L343.054 135.96L342.758 134.48L343.35 127.82L342.61 121.457L359.781 44.2106L357.412 43.7667L322.774 35.6277L292.576 27.9326L258.382 18.4617L248.168 15.946L250.537 28.8205L248.316 32.964L244.32 30.8922L248.168 48.7981L244.024 54.7174L242.099 60.1927V65.816L233.366 71.8833L229.665 69.5156L226.112 71.2913L232.625 62.8564L230.997 68.6277L234.698 64.6321L237.658 65.2241L236.77 57.825L238.695 58.1209L242.691 49.242L241.359 47.9102L236.178 54.5694L232.773 54.7173L236.474 50.5738L240.619 49.538L239.139 41.9909L234.994 40.955L232.922 37.4034L230.405 38.7353L216.787 32.816L204.796 23.4931L201.54 32.52L201.244 36.3676L203.76 43.1747L202.132 65.2241L200.948 68.6277L207.609 69.2196L200.948 73.955L204.5 75.7308L201.688 85.2017L200.356 77.8025L197.839 86.3855L201.244 90.529L204.944 90.233L209.385 92.8967L211.606 97.1882H214.27V97.1881Z" fill="#3B82F6" stroke="white" stroke-width="0.970631" stroke-linejoin="round"/>
<path d="M475.39 440.211L425.505 433.996L398.712 430.148L360.521 424.081L356.672 423.489V423.785L350.159 452.493L346.755 452.345L341.574 447.758L335.06 453.233L334.912 476.762L332.544 481.794V482.238V482.386L332.248 486.085L337.429 499.996L342.018 506.211L333.728 511.094L330.471 517.161L325.142 530.184L322.478 530.776L322.33 541.579L326.919 544.982L324.55 551.493L319.221 551.789L316.113 557.561L326.771 564.22L346.902 575.466L409.074 608.466L461.771 614.978H462.364L466.508 571.323L467.544 560.52L478.647 445.982L479.239 440.655L475.39 440.211H475.39Z" fill="#3B82F6" stroke="white" stroke-width="0.970631" stroke-linejoin="round"/>
<path d="M221.968 522.341L222.56 525.596V526.188L221.968 522.341ZM200.208 509.614L201.244 511.834L201.836 511.686L200.208 509.614V509.614ZM226.112 509.17L226.556 513.018L229.221 514.942L226.112 509.17ZM208.201 488.157L206.573 487.713L207.905 488.305L208.201 488.157V488.157ZM191.77 483.717L187.773 486.085L188.809 487.121L191.77 483.717ZM184.073 480.906L183.777 482.09L185.109 482.386L184.073 480.906ZM197.099 483.865L203.612 487.565L204.796 486.529L197.099 483.865ZM146.622 353.493L146.474 353.641L146.622 353.493ZM162.461 354.233L162.313 353.789V354.381L162.461 354.233V354.233ZM247.872 241.915L242.099 240.435L178.744 222.973L155.207 215.87V216.462L153.875 231.112L147.658 248.426L137.296 261.3L137 267.812L142.033 276.838L144.549 288.677L140.997 298.296L141.589 307.915L139.813 311.91L145.882 325.081L149.73 330.112L149.434 344.466L158.612 353.197L163.941 344.318L169.714 348.906L171.934 346.834L163.941 348.314L163.793 355.861L165.421 365.332L160.98 361.04L158.464 355.269L157.724 363.26L159.796 379.094L168.086 389.305L162.609 396.408L163.497 405.435L169.418 414.61L179.78 443.022L183.036 444.798L182 464.48L183.628 466.847L205.833 474.838L212.642 482.09L215.01 486.825L221.523 490.525L228.629 491.856L231.589 499.995L237.51 502.807L246.392 513.314L254.681 527.076L254.089 539.803L258.678 545.87L319.221 551.789L324.55 551.493L326.919 544.982L322.33 541.578L322.478 530.776L325.142 530.184L330.471 517.161L333.728 511.094L342.018 506.211L337.429 499.995L332.248 486.085L332.544 482.386V482.238L328.695 477.058L316.853 461.224L293.909 428.964L261.935 383.09L243.876 358.081L226.408 332.924L246.54 247.538L247.872 241.915L247.872 241.915Z" fill="#3B82F6" stroke="white" stroke-width="0.970631" stroke-linejoin="round"/>
<path d="M654.503 357.341L655.095 328.336L647.99 328.04L611.871 326.709L608.318 326.56L605.358 326.412L561.394 323.601L532.084 321.233L495.522 317.682L491.969 317.238L491.525 321.085L483.531 398.184L480.719 425.116L479.535 436.807L479.239 440.655L483.828 441.099L558.433 447.61L591.295 449.682L624.009 451.161L628.746 451.309L631.706 451.457L637.924 451.605L640.884 451.754L650.21 452.049H652.578V449.09L654.207 370.807L654.355 362.076V359.265L654.503 357.341L654.503 357.341Z" fill="#3B82F6" stroke="white" stroke-width="0.970631" stroke-linejoin="round"/>
<path d="M357.412 418.753L372.807 323.009L380.653 275.063L381.541 270.327L377.248 269.587L360.521 266.48L318.629 258.193L314.485 257.305L310.34 256.417L289.468 251.83L252.017 242.951L247.872 241.915L246.54 247.538L226.408 332.924L243.876 358.081L261.935 383.09L293.909 428.964L316.853 461.224L328.695 477.058L332.544 482.238V481.794L334.912 476.762L335.06 453.233L341.574 447.758L346.755 452.345L350.159 452.493L356.672 423.785V423.489L357.412 418.753L357.412 418.753Z" fill="#3B82F6" stroke="white" stroke-width="0.970631" stroke-linejoin="round"/>
<path d="M628.302 462.852L628.45 459.005L628.598 455.157L628.746 451.31L624.009 451.162L591.295 449.682L558.433 447.61L483.828 441.099L479.239 440.655L478.647 445.982L467.545 560.52L466.508 571.323L462.364 614.978L462.956 615.126L483.384 617.049L485.308 606.691L489.009 603.731L530.456 607.431H530.752L527.052 600.179L545.851 601.511L592.776 604.175L622.085 605.507L627.118 466.7L628.154 466.848L628.302 462.852L628.302 462.852Z" fill="#3B82F6" stroke="white" stroke-width="0.970631" stroke-linejoin="round"/>
<path d="M155.207 215.87L178.744 222.973L242.099 240.435L247.872 241.915L252.017 242.951L289.468 251.83L310.34 256.417L314.484 257.305L315.077 254.197L329.139 195.892L325.142 186.422L325.587 182.722L340.981 162.596L348.235 144.395L343.202 138.919L343.054 136.108V135.96L340.241 135.368L298.646 125.897L296.425 126.933L288.284 125.601L271.853 127.377L261.787 126.045L251.129 125.897L250.241 123.233L227.741 121.161L219.747 116.87L218.711 114.058L219.599 102.96L214.27 97.1883L213.826 97.3363L212.79 98.0762L205.388 94.2287L200.948 95.5605L197.987 94.0807L194.879 106.807L192.806 110.359L183.629 132.704L180.964 144.987L179.336 145.135L170.75 165.556L164.977 174.287L162.905 175.767L157.576 186.126L156.54 197.076L153.283 206.843L155.207 215.722V215.87L155.207 215.87ZM209.385 94.3768L208.941 93.0449L208.793 94.0808L209.385 94.3768H209.385Z" fill="#3B82F6" stroke="white" stroke-width="0.970631" stroke-linejoin="round"/>
<path d="M445.192 280.242L407.001 274.471L385.686 271.067L381.541 270.327L380.653 275.063L372.807 323.009L357.412 418.753L356.672 423.489L360.521 424.081L398.712 430.148L425.505 433.995L475.39 440.211L479.239 440.655L479.535 436.807L480.719 425.116L483.531 398.184L491.525 321.085L491.969 317.237L489.008 316.942L451.262 312.354L445.489 311.614L449.189 282.758L449.485 280.834L445.192 280.242Z" fill="#3B82F6" stroke="white" stroke-width="0.970631" stroke-linejoin="round"/>
<path d="M611.427 260.709L612.611 237.624L614.091 206.547L614.239 202.7L612.315 202.552L574.272 200.332L552.956 198.556L512.545 194.709L461.92 188.493L459.847 202.996L459.699 203.884L459.107 208.767L456.442 227.857L451.41 266.332L450.077 275.951L449.485 280.834L449.189 282.758L445.489 311.615L451.262 312.354L489.008 316.942L491.969 317.238L495.522 317.682L532.084 321.233L561.394 323.601L605.358 326.413L608.318 326.561L608.466 322.713L609.207 307.175L610.539 280.094L611.131 268.552L611.279 264.704L611.427 260.709H611.427Z" fill="#3B82F6" stroke="white" stroke-width="0.970631" stroke-linejoin="round"/>
<path d="M960.771 467.883L944.784 470.251L951.297 459.892L948.485 454.121L892.086 459.596L844.421 463.444L837.464 463.888L838.352 468.031L844.125 497.924L844.273 504.583L845.902 544.834L846.05 551.493L846.494 551.641L848.714 554.009L857.596 553.713L858.484 566.736L858.78 570.435L863.369 569.991L877.432 568.955L933.238 563.776H933.534L933.386 560.52L934.866 559.484L932.202 554.453L937.827 530.776L935.606 528.112L944.044 518.789L943.452 510.798L949.669 500.44V500.292L949.373 499.996L954.702 495.112L953.221 489.193L957.366 482.682L956.478 476.614L960.919 468.031V467.883H960.771V467.883Z" fill="#3B82F6" stroke="white" stroke-width="0.970631" stroke-linejoin="round"/>
<path d="M916.659 269.143L908.517 264.852L904.076 258.785L902.596 250.054L903.78 246.058L899.488 240.879L892.234 241.619L819.405 247.686L790.244 249.314L782.842 249.758L779.734 249.906L782.25 266.332L780.178 274.175L783.434 279.058V280.094L784.471 280.242L789.207 294.153L793.796 301.404L794.092 309.691L799.125 316.646L798.237 319.606L802.826 338.251V338.695L833.171 337.807L865.589 334.996L897.415 331L904.669 337.363L904.965 337.659L906.297 337.067L905.261 331.296L910.738 327.893L912.958 312.798L910.738 311.762L912.07 304.067L918.731 302.736L926.132 297.408L929.389 288.085L929.537 283.35L923.616 277.727L921.84 274.175L916.215 270.623L916.511 269.884L916.659 269.144L916.659 269.143Z" fill="#3B82F6" stroke="white" stroke-width="0.970631" stroke-linejoin="round"/>
<path d="M836.428 444.502L832.727 381.906L826.066 378.058L825.474 375.099L820.145 370.363L825.326 364L823.254 360.301L819.405 360.449L815.852 357.933L814.372 356.749L809.339 357.045L754.717 359.117L729.701 359.709H679.963L659.98 359.413L654.355 359.265V362.076L654.207 370.807L652.578 449.09V452.049L658.944 452.197L693.286 452.641L773.664 451.458L830.951 448.794L836.576 448.35L836.428 444.502L836.428 444.502Z" fill="#3B82F6" stroke="white" stroke-width="0.970631" stroke-linejoin="round"/>
<path d="M904.668 337.363L897.415 331L865.589 334.996L833.171 337.807L802.826 338.695L802.678 339.583L806.378 346.686L809.783 349.054L813.78 356.157L814.372 356.749L815.852 357.933L819.405 360.448L823.253 360.3L825.326 364L820.145 370.363L825.474 375.099L826.066 378.058L832.727 381.906L836.428 444.502L836.576 448.35L836.872 452.197L837.02 456.045L837.316 460.04L837.464 463.888L844.422 463.444L892.086 459.596L948.484 454.121L951.297 459.892L944.784 470.251L960.771 467.883H960.919V466.7L961.215 459.892L964.175 456.193L963.287 452.049L963.139 451.901L962.991 451.753L963.583 449.829L964.471 450.125L964.915 451.309L964.767 451.753V451.901V453.085L965.359 453.233L966.544 451.753V451.605L966.692 451.161L970.541 448.794L971.133 448.498L972.465 436.363L972.169 435.771L971.725 435.623L961.215 427.04L962.843 423.933L959.883 415.498L954.554 411.354L944.488 406.915L938.123 401.735L938.863 391.081L940.787 381.166L930.129 381.758L926.873 378.354L925.392 371.547L908.517 357.341L903.78 344.17L904.965 337.659L904.668 337.363V337.363Z" fill="#3B82F6" stroke="white" stroke-width="0.970631" stroke-linejoin="round"/>
<path d="M780.622 279.798L776.033 275.211L759.898 270.475L754.717 270.327L746.872 272.547L737.546 266.628L708.385 266.924L665.901 266.48L615.72 264.852L611.279 264.704L611.131 268.551L610.539 280.094L609.206 307.175L608.466 322.713L608.318 326.56L611.871 326.708L647.989 328.04L655.095 328.336L654.503 357.341L654.354 359.264L659.979 359.413L679.963 359.708H729.7L754.717 359.117L809.339 357.045L814.372 356.749L813.78 356.157L809.783 349.054L806.378 346.686L802.678 339.583L802.826 338.695V338.251L798.237 319.605L799.125 316.646L794.092 309.691L793.796 301.404L789.207 294.152L784.47 280.242L783.434 280.094L780.622 279.798L780.622 279.798Z" fill="#3B82F6" stroke="white" stroke-width="0.970631" stroke-linejoin="round"/>
<path d="M837.316 460.04L837.02 456.045L836.872 452.197L836.576 448.35L830.951 448.794L773.664 451.457L693.286 452.641L658.943 452.197L652.578 452.049H650.21L640.884 451.753L637.924 451.605L631.706 451.457L628.746 451.309L628.598 455.157L628.45 459.004L628.302 462.852L628.154 466.847H629.042L664.864 467.735L702.759 468.179L703.203 518.789L705.868 527.668L711.789 533.291L718.154 533.587L719.486 530.924L728.22 538.915L739.618 540.098L741.69 542.466L745.835 540.542L756.197 545.426V548.237L760.046 548.089L764.042 544.686L771.444 549.421L778.401 551.937L783.138 545.426L798.237 552.529L803.862 547.941L808.451 546.166L812.151 547.054L826.066 543.058L833.467 546.166L840.128 550.457L845.901 551.493H846.049L845.901 544.834L844.273 504.583L844.125 497.924L838.352 468.031L837.464 463.888L837.316 460.04L837.316 460.04Z" fill="#3B82F6" stroke="white" stroke-width="0.970631" stroke-linejoin="round"/>
<path d="M772.332 174.435L747.316 175.175L687.069 175.619L621.789 173.843L616.016 173.547L615.868 176.951L615.275 190.417L614.831 200.628L614.683 202.7H614.239L614.091 206.547L612.611 237.623L611.427 260.709L611.279 264.704L615.719 264.852L665.901 266.48L708.384 266.924L737.546 266.628L746.871 272.547L754.717 270.327L759.898 270.476L776.033 275.211L780.622 279.798L783.434 280.094V279.058L780.178 274.175L782.25 266.332L779.733 249.906L782.842 249.758L782.546 242.951L775.145 190.861L771.296 184.35L777.217 174.583L777.365 174.139L772.332 174.435L772.332 174.435Z" fill="#3B82F6" stroke="white" stroke-width="0.970631" stroke-linejoin="round"/>
<path d="M958.55 683.197L956.626 683.641L955.738 684.529L958.55 683.197ZM964.767 683.197L963.731 682.753L963.435 683.197H964.767ZM968.32 682.013H967.284L966.692 682.753L968.32 682.013ZM966.544 680.977L966.248 680.533L966.1 680.977H966.544ZM978.386 673.134L977.942 673.43H978.682L978.386 673.134ZM999.11 664.403L999.998 663.22L998.962 664.551L999.11 664.403V664.403ZM1002.07 660.556L1001.77 660.704V660.852L1002.07 660.556V660.556ZM925.984 673.578L928.205 670.767L922.136 669.139L919.471 671.359L925.984 673.578ZM987.416 660.704L986.823 660.112L986.675 660.408L987.416 660.704ZM989.044 658.04L987.564 657.596L988.008 659.076L989.044 658.04ZM1001.18 655.525V655.081V655.229V655.525V655.525ZM1004.14 653.601L1003.99 653.453L1004.14 653.749V653.601V653.601ZM1002.96 653.305L1002.66 653.157L1002.51 653.601L1002.96 653.305L1002.96 653.305ZM992.597 652.861L993.929 652.417V651.973L992.597 652.861ZM993.337 652.121L994.077 651.381L993.929 651.233L993.337 652.121L993.337 652.121ZM988.156 646.646L987.86 646.942H988.008L988.156 646.646H988.156ZM933.534 563.776H933.238L877.431 568.955L863.369 569.991L858.78 570.435L858.928 573.986L861.889 602.547L866.774 609.354L866.922 613.35L871.659 621.637L875.507 633.771L874.175 640.578L873.139 657.448L870.918 662.924H871.214L871.659 666.771L869.142 670.323L887.497 668.251L901.856 672.246L912.07 673.578L917.251 669.879L914.438 666.179L923.912 663.22L923.616 666.475L928.501 665.291L932.498 671.507L935.902 670.323L944.784 676.39L939.307 678.314L951.889 682.013H956.626L959.439 678.61L965.508 675.354L969.8 681.569L972.761 675.946L971.873 667.067L979.866 670.175L980.755 672.838L990.228 674.022L994.965 677.87L994.373 680.977L1001.03 674.762L998.518 671.507L987.416 668.695L983.271 666.327L983.123 661.888L987.712 662.48L991.264 655.229L986.675 648.865L984.159 654.933L978.386 653.897L982.383 647.385L979.718 646.646L973.205 651.233L963.879 651.825L961.215 649.753L965.508 642.206L970.541 642.058L979.126 644.87L985.343 645.462L981.939 641.17L975.425 628.444L977.202 621.341L926.132 626.964L928.057 625.04L925.984 619.713L929.093 615.125L930.869 603.583L942.119 584.345L936.642 577.686L936.938 572.803L933.534 564.811V563.776H933.534Z" fill="#3B82F6" stroke="white" stroke-width="0.970631" stroke-linejoin="round"/>
<path d="M783.138 786.341L776.033 759.556V764.587L783.138 786.341ZM781.51 739.283L776.477 748.753L775.885 751.861L781.51 739.283ZM785.507 732.327L790.243 726.112L786.839 728.184L785.507 732.327ZM802.234 717.233L791.132 723.004L794.24 722.413L802.234 717.233ZM803.714 715.161L806.823 712.646L805.638 712.942L803.714 715.161ZM628.154 466.848L627.118 466.699L622.085 605.507L592.775 604.175L545.851 601.511L527.051 600.179L530.752 607.43L530.9 607.578L546.887 623.561L556.065 634.363L568.203 643.39L576.789 659.076L580.045 675.502L587.002 680.09L592.479 686.157L600.325 688.969L611.723 696.22L616.904 698.143L624.009 691.04L626.23 683.493L629.93 676.242L641.476 671.655L645.917 673.874L658.796 674.91L670.49 682.161L678.483 683.641L676.263 687.785L680.852 690.744L685.144 695.924L686.033 701.399L688.845 705.099L695.358 720.785L701.871 726.26L706.904 734.547L713.269 741.058L716.082 741.946L718.45 758.816L725.408 762.664L725.704 767.991L727.48 767.547L739.618 782.345L745.687 783.677L753.385 788.265H765.227L773.813 793L784.026 790.78L779.438 786.489L775.293 774.058L773.665 763.256L771.296 759.704L772.332 752.453L769.224 752.157L765.079 745.35L769.816 750.381L775.293 748.457L778.253 740.614L772.332 732.623L781.214 733.659L785.359 727.296L784.767 725.076L788.467 720.193L787.579 724.484L791.724 721.229L790.096 715.457L795.425 718.269L802.234 714.422L795.573 707.466L799.717 709.094L807.415 709.538L817.481 707.318L828.731 699.771L835.54 694.148L836.576 690.004L840.721 685.713L838.5 678.61L838.945 674.17L846.346 670.915L845.754 678.758H850.195L845.31 682.901L864.997 672.543L868.254 672.395L870.326 662.924H870.918L873.139 657.448L874.175 640.578L875.507 633.771L871.658 621.637L866.922 613.35L866.773 609.354L861.889 602.547L858.928 573.986L858.78 570.435L858.484 566.735L857.596 553.713L848.714 554.009L846.494 551.641L846.05 551.493H845.902L840.129 550.457L833.467 546.166L826.066 543.058L812.151 547.054L808.451 546.166L803.862 547.942L798.237 552.529L783.138 545.426L778.401 551.937L771.444 549.421L764.043 544.686L760.046 548.09L756.197 548.238V545.426L745.835 540.543L741.691 542.466L739.618 540.099L728.22 538.915L719.486 530.924L718.154 533.587L711.789 533.291L705.868 527.668L703.203 518.789L702.759 468.179L664.864 467.735L629.042 466.847H628.154L628.154 466.848Z" fill="#3B82F6" stroke="white" stroke-width="0.970631" stroke-linejoin="round"/>
<path d="M1336.76 186.273L1315.44 194.412L1315.15 193.673L1303.16 197.224L1300.49 197.964L1300.79 199.444L1306.41 221.197L1308.19 223.417L1304.34 228.152L1307.01 230.668L1315.59 222.381L1320.18 216.018L1321.07 217.794L1342.68 208.175L1343.12 207.731L1342.98 204.179L1342.09 201.072L1337.5 188.197L1336.91 186.569L1336.76 186.273H1336.76Z" fill="#3B82F6" stroke="white" stroke-width="0.970631" stroke-linejoin="round"/>
<path d="M1316.78 83.574L1314.85 85.9417L1312.63 85.4977L1311.45 95.2646V95.4125L1315 108.731L1314.7 111.395L1308.34 119.83L1309.97 127.525V137.143L1308.78 146.022L1315.44 170.291L1321.51 168.368L1340.16 162.152L1348.6 152.978V150.61L1349.05 146.762L1348.01 147.206L1347.86 146.318L1338.54 134.924L1338.24 133.888L1316.78 83.574H1316.78Z" fill="#3B82F6" stroke="white" stroke-width="0.970631" stroke-linejoin="round"/>
<path d="M1351.27 199.592L1351.12 196.484L1350.67 197.668L1351.27 199.592H1351.27ZM1354.23 197.224L1352.3 193.525L1352.15 197.372L1354.23 197.224V197.224ZM1353.34 192.637L1354.37 195.3L1355.71 197.668L1356.6 195.892L1355.26 193.377L1354.82 191.601H1353.34V192.637ZM1336.91 186.569L1337.5 188.197L1342.09 201.072L1342.98 204.179L1343.12 207.731L1343.42 207.287L1350.53 201.664L1349.19 191.601L1352.15 191.009L1345.64 183.166L1338.83 185.829L1336.91 186.569H1336.91Z" fill="#3B82F6" stroke="white" stroke-width="0.970631" stroke-linejoin="round"/>
<path d="M1315.44 170.292L1308.78 146.022L1309.97 137.144V127.525L1308.34 119.83L1314.7 111.395L1315 108.731L1311.45 95.4126L1309.52 96.1525L1301.38 99.1121L1293.39 102.22L1275.03 108.879L1274 109.175L1280.66 124.713L1282.88 139.363L1290.72 151.646L1298.12 175.915L1298.42 175.767L1299.6 175.323L1303.01 174.287L1305.97 173.251L1314.41 170.735L1315.44 170.291V170.292Z" fill="#3B82F6" stroke="white" stroke-width="0.970631" stroke-linejoin="round"/>
<path d="M1003.25 493.484L1003.85 494.668L1005.92 496L1006.81 556.673L1007.1 589.969L1014.65 635.547L1015.24 635.399L1021.91 636.731L1023.68 623.561L1026.64 630.96L1031.68 635.547L1041.3 629.924L1040.26 629.036L1040.56 629.184L1033.9 613.942L1097.84 603.583L1102.14 602.843V602.695L1098.14 595.148L1097.84 584.345L1094.59 578.426L1096.22 566.883L1098.88 563.924L1087.93 544.39L1068.09 484.014L1067.94 483.718L1063.5 484.457L1039.82 488.305L1027.98 489.785L1003.11 493.188L1003.25 493.484V493.484Z" fill="#3B82F6" stroke="white" stroke-width="0.970631" stroke-linejoin="round"/>
<path d="M1211.23 783.825H1210.94L1211.08 783.973L1211.23 783.825H1211.23ZM1209.9 783.677V783.825H1210.05L1209.9 783.677ZM1210.2 783.529V783.381V783.529ZM1190.06 785.749V785.897V785.749ZM1189.77 785.897V785.749V785.897ZM1188.44 785.897H1188.29V786.045L1188.44 785.897ZM1230.48 776.574H1230.33L1230.48 776.87V776.574ZM1234.47 775.538V775.242L1234.18 775.686L1234.47 775.538V775.538ZM1232.99 775.242L1232.4 774.65L1232.25 774.798L1232.99 775.242L1232.99 775.242ZM1232.55 776.426L1230.77 774.206L1231.81 776.13L1232.55 776.426ZM1246.61 767.695V768.287L1246.91 767.991L1246.61 767.695ZM1248.68 766.215L1249.13 765.475L1248.54 766.067L1248.68 766.215V766.215ZM1249.13 764.735H1248.98V764.884L1249.13 764.735ZM1246.46 764.292L1246.32 764.143L1246.46 764.292ZM1247.8 762.072L1247.65 761.924V762.22L1247.8 762.072V762.072ZM1243.8 761.924L1243.65 761.776L1243.8 761.924ZM1248.83 758.52L1248.54 758.668L1248.98 758.816L1248.83 758.52V758.52ZM1249.42 758.52L1249.13 758.224L1249.28 758.668L1249.42 758.52L1249.42 758.52ZM1248.39 758.224L1248.24 758.076V758.372L1248.39 758.224V758.224ZM1253.86 757.188V757.04L1253.57 757.632L1253.86 757.188V757.188ZM1247.65 757.78H1247.35L1247.65 757.928V757.78ZM1250.76 756.004H1250.31L1250.16 756.153L1250.76 756.004H1250.76ZM1251.94 755.265H1251.79H1251.94ZM1239.51 755.857V755.561L1239.36 755.857H1239.51ZM1240.84 755.413H1240.39L1240.84 756.3V755.413ZM1237.29 755.561V754.673L1236.55 754.821L1237.29 755.561ZM1235.21 754.081L1235.95 754.821V754.525L1235.21 754.081ZM1256.97 754.969L1254.31 756.153L1255.2 756.301L1256.97 754.969V754.969ZM1236.25 753.637H1235.36V753.933L1236.25 753.637ZM1259.64 746.238L1259.79 745.498L1259.93 743.574L1259.64 746.238H1259.64ZM1259.79 737.951L1259.19 736.471L1258.9 737.063L1259.79 737.951ZM1225.59 741.65L1225.3 742.094L1226.04 742.242L1225.59 741.65V741.65ZM1222.78 740.318L1221.45 740.762L1222.48 740.91L1222.78 740.318V740.318ZM1219.82 740.614V740.17L1219.67 740.318L1219.82 740.614V740.614ZM1216.71 740.466L1215.82 741.058L1217.01 741.65L1216.71 740.466ZM1220.85 740.614L1220.71 740.17L1219.97 740.022L1220.85 740.614V740.614ZM1201.46 726.112L1200.57 726.556L1202.35 727.148L1201.46 726.112ZM1197.91 721.377L1196.73 719.601L1197.17 720.933L1197.91 721.377ZM1202.5 724.336L1200.43 719.601L1198.95 719.157L1202.5 724.336ZM1196.58 718.417L1196.13 717.233L1195.84 716.493L1196.58 718.417ZM1184.29 701.991L1181.63 700.067L1182.66 701.103L1184.29 701.991ZM1250.9 692.076L1240.1 674.022H1239.51L1250.9 692.076ZM1176.15 663.22L1175.71 663.072L1176.15 663.368V663.22V663.22ZM1175.26 662.184L1175.11 662.332L1175.26 662.48V662.184V662.184ZM1174.23 660.704V660.556L1174.08 660.704H1174.23ZM1174.82 660.112L1175.26 660.408V660.112H1174.82ZM1175.71 659.52L1175.11 659.668H1175.26L1175.71 659.52H1175.71ZM1174.67 659.372L1174.23 658.928L1174.37 659.076L1174.67 659.372V659.372ZM1173.63 657.744H1173.34L1173.78 657.892L1173.63 657.744H1173.63ZM1174.67 655.969H1174.08L1173.93 656.117L1174.67 655.969H1174.67ZM1175.26 656.265L1174.52 655.525L1174.82 655.673L1175.26 656.265V656.265ZM1169.64 649.901L1169.34 649.753V649.901H1169.64ZM1163.27 649.901L1162.83 649.309L1162.98 650.049L1163.27 649.901V649.901ZM1109.39 645.018L1113.83 641.614L1108.95 644.87L1109.39 645.018V645.018ZM1118.27 637.915L1118.72 637.471L1116.94 638.211L1118.27 637.915ZM1062.02 628L1045.89 633.179L1054.77 630.664L1062.02 628ZM1102.14 602.843L1097.84 603.583L1033.9 613.942L1040.56 629.184L1041 629.332L1039.37 635.399L1044.11 633.327L1049.29 628.74L1058.17 628.444L1068.39 624.744L1075.34 625.78L1073.72 628.296L1086.45 632.587L1097.4 637.915L1099.92 643.834L1108.06 642.058L1127.3 626.372L1134.41 626.668L1163.42 648.57L1169.34 647.386L1175.56 655.673L1176.74 668.843L1174.82 677.13L1175.71 681.274L1180.89 691.632L1178.52 683.493L1185.18 683.345L1185.77 689.265L1182.22 698.439L1194.51 715.309L1199.09 715.457L1195.25 710.278L1199.98 710.87L1202.8 709.094L1201.61 718.565L1207.98 723.596L1212.27 735.139L1218.04 738.691L1225.44 740.614L1235.66 753.637L1240.99 756.448L1233.88 756.892L1237.14 760.592L1248.83 756.744L1254.6 753.489L1259.93 734.843L1257.27 705.839L1256.68 702.879L1242.47 679.202L1230.33 662.036L1223.52 647.978L1229.29 652.861L1230.48 651.973L1232.99 664.256L1239.51 673.579L1233.14 661.148L1233.44 655.229L1214.34 631.996L1209.75 624.744L1203.68 612.462L1199.54 602.103L1196.28 598.404L1195.54 593.668L1195.39 593.52L1185.18 592.928L1181.18 596.036L1178.96 607.43L1176.89 602.103L1107.02 610.834L1101.99 602.991L1102.14 602.843V602.843Z" fill="#3B82F6" stroke="white" stroke-width="0.970631" stroke-linejoin="round"/>
<path d="M1197.76 571.619L1197.61 567.179L1196.58 571.027L1197.76 571.619H1197.76ZM1199.39 564.812L1198.8 561.408L1198.35 563.48L1199.39 564.812ZM1130.11 471.583L1128.19 472.027L1122.56 473.211L1101.84 477.502L1099.92 477.946L1097.84 478.242L1086.3 480.462L1083.19 481.054L1070.61 483.422L1067.94 483.718L1068.09 484.013L1087.93 544.39L1098.88 563.924L1096.22 566.883L1094.59 578.426L1097.84 584.345L1098.14 595.148L1102.14 602.695V602.843L1101.99 602.991L1107.02 610.834L1176.89 602.103L1178.96 607.431L1181.18 596.036L1185.18 592.928L1195.39 593.52L1194.51 577.538L1196.43 574.135L1195.39 567.771L1197.47 561.704L1200.57 558.301L1198.35 556.229L1203.54 549.866H1203.39L1194.51 541.579L1182.37 524.265L1175.71 521.157L1147.14 497.184L1140.18 488.305L1126.71 482.682L1125.97 479.722L1130.11 471.583V471.583Z" fill="#3B82F6" stroke="white" stroke-width="0.970631" stroke-linejoin="round"/>
<path d="M1000.89 642.798L1000.15 642.946V643.094L1000.89 642.798V642.798ZM1014.65 641.022H1012.58L1014.5 641.17L1014.65 641.022H1014.65ZM997.481 642.502L996.889 643.094L997.037 643.242L997.481 642.502L997.481 642.502ZM1011.4 641.318H1005.77L1011.1 641.466L1011.4 641.318ZM949.669 500.291V500.439L943.451 510.798L944.044 518.789L935.606 528.112L937.826 530.776L932.201 554.453L934.866 559.484L933.386 560.52L933.534 563.776V564.812L936.938 572.803L936.642 577.686L942.119 584.345L930.869 603.583L929.093 615.125L925.984 619.713L928.057 625.04L926.132 626.964L977.202 621.341L975.425 628.444L981.939 641.17L985.343 645.462V645.314L990.82 639.099L1002.37 636.583L1013.02 637.767L1014.65 635.695V635.547L1007.1 589.968L1006.81 556.672L1005.92 496L1003.85 494.668L1003.25 493.484H1002.96L995.557 494.52L982.531 496.296L952.925 499.995L949.669 500.291L949.669 500.291Z" fill="#3B82F6" stroke="white" stroke-width="0.970631" stroke-linejoin="round"/>
<path d="M1130.11 471.583L1125.97 479.722L1126.71 482.682L1140.18 488.305L1147.14 497.184L1175.71 521.157L1182.37 524.265L1194.51 541.579L1203.39 549.866L1204.87 543.059L1202.5 536.547L1208.86 541.283L1212.42 538.471L1206.35 533.44L1213.75 532.996L1225.3 523.229L1223.96 520.713L1231.07 515.238L1230.33 512.574L1235.51 509.319L1235.81 501.772L1243.95 486.677L1249.42 479.722L1250.02 479.426L1217.01 458.561L1204.72 460.929L1187.99 460.337L1179.7 456.045L1130.56 471.583H1130.11Z" fill="#3B82F6" stroke="white" stroke-width="0.970631" stroke-linejoin="round"/>
<path d="M916.511 269.884L916.215 270.624L921.84 274.175L923.616 277.727L929.537 283.35L929.389 288.085L926.132 297.408L918.731 302.736L912.07 304.067L910.738 311.763L912.958 312.798L910.738 327.893L905.261 331.296L906.297 337.067L904.964 337.659L903.78 344.171L908.517 357.341L925.392 371.547L926.872 378.354L930.129 381.758L940.787 381.166L938.863 391.081L938.123 401.736L944.488 406.915L954.554 411.354L959.883 415.498L962.843 423.933L961.215 427.041L971.725 435.624L972.169 435.772L971.281 434.884L974.241 427.929L985.639 431.036L988.452 427.781L986.231 421.269L995.557 415.794L993.041 412.242L995.261 407.211V406.767L994.669 406.619L994.817 393.449L998.074 391.081L1003.7 377.911L1002.51 372.139L998.814 365.184L1000.89 357.341L990.524 284.386L989.044 282.758L985.195 274.027L982.087 270.771L980.754 262.189V261.893L960.771 264.704L948.781 266.184L916.511 269.884Z" fill="#3B82F6" stroke="white" stroke-width="0.970631" stroke-linejoin="round"/>
<path d="M1052.1 272.991L1029.46 276.986L1024.27 278.022L1005.92 280.982L1002.07 284.089L996.297 286.753L994.077 286.605L991.412 285.273L990.524 284.385L1000.89 357.341L998.814 365.184L1002.51 372.139L1003.7 377.91L998.074 391.08L994.817 393.448L994.669 406.619L995.261 406.767L995.853 406.619L998.074 402.475H1003.55L1010.21 400.255L1018.5 403.363L1019.39 399.959L1024.13 396.408L1031.23 397.444L1035.08 389.897L1045.59 390.784L1045.44 386.493L1054.77 374.211L1053.29 368.587L1059.8 368.439L1067.79 362.076L1065.87 354.825L1066.17 354.529L1065.87 352.013L1056.99 299.627L1052.99 277.282L1052.55 274.914L1052.1 272.991L1052.1 272.991Z" fill="#3B82F6" stroke="white" stroke-width="0.970631" stroke-linejoin="round"/>
<path d="M964.916 451.31L964.471 450.126L963.583 449.83L962.991 451.753L963.139 451.901L964.768 451.753L964.916 451.31H964.916ZM1066.17 354.529L1065.87 354.825L1067.79 362.076L1059.8 368.44L1053.29 368.588L1054.77 374.211L1045.44 386.493L1045.59 390.785L1035.08 389.897L1031.23 397.444L1024.13 396.408L1019.39 399.96L1018.5 403.363L1010.21 400.256L1003.55 402.475H998.074L995.853 406.619L995.261 406.767V407.211L993.041 412.242L995.557 415.794L986.232 421.269L988.452 427.78L985.639 431.036L974.241 427.928L971.281 434.884L972.169 435.772L972.465 436.363L971.133 448.498L970.541 448.794L966.692 451.162L966.544 451.606L970.837 451.014L1000.74 447.018L999.258 441.099L1004.29 440.951L1064.54 432.96L1106.87 425.857L1107.47 425.413L1108.5 424.229L1119.6 418.31L1128.19 407.063L1129.37 403.215L1135 398.776L1142.1 389.749L1143.14 388.269L1142.7 388.121H1139L1134.26 385.457L1125.82 375.247L1122.86 364.888V364.592L1122.56 364.296L1116.35 360.744L1113.53 356.009L1107.91 361.484L1104.36 362.372L1099.92 360.597L1096.07 363.556L1088.07 360.005L1086 360.892L1078.45 354.381L1074.6 352.458L1067.35 353.345L1066.17 354.529Z" fill="#3B82F6" stroke="white" stroke-width="0.970631" stroke-linejoin="round"/>
<path d="M1265.41 474.247L1263.78 475.874L1264.08 476.17L1265.41 474.247ZM1266.59 465.664L1265.85 466.848L1266.15 468.031L1266.59 465.664ZM1275.48 451.901L1273.26 453.381L1272.07 455.157L1275.48 451.901ZM1294.57 442.578L1293.68 441.987L1291.76 441.839L1294.57 442.578V442.578ZM1290.57 441.691H1289.24L1287.02 442.874L1290.57 441.691ZM1295.16 443.318L1299.46 432.664L1296.5 437.103L1295.16 443.318ZM1301.53 429.26L1303.45 426.448H1302.42L1301.53 429.26ZM1313.96 417.717L1310.71 401.292L1313.52 409.874L1313.96 417.717ZM1295.9 380.278L1295.61 380.426L1295.16 380.574H1295.31L1303.45 394.336L1309.82 400.7L1295.9 380.278L1295.9 380.278ZM1293.24 381.166L1292.06 381.462L1292.35 381.61H1294.87L1294.57 380.722L1294.13 380.87H1293.68V381.166L1293.39 381.314L1293.24 381.166V381.166ZM1156.31 414.906L1155.57 417.126L1155.72 423.489L1154.09 423.341L1150.25 431.184L1145.95 431.628L1137.96 439.471L1134.41 438.139L1129.82 444.946L1117.68 455.897L1111.76 457.377L1105.54 463.148L1105.25 466.995L1099.77 469.955L1099.92 476.466V477.946L1101.84 477.502L1122.56 473.211L1128.19 472.027L1130.11 471.583H1130.56L1179.7 456.045L1187.99 460.336L1204.72 460.928L1217.01 458.56L1250.02 479.426L1250.61 478.982L1265.85 472.767L1266 464.628L1271.48 454.713L1277.4 449.09L1289.69 440.951L1291.32 437.991L1294.57 439.471L1296.05 429.704L1294.28 433.108L1288.06 435.179L1282.14 435.327L1289.39 430L1287.17 427.632L1289.69 422.305L1275.77 420.085L1275.18 419.345L1287.02 417.126L1290.87 419.049L1295.76 418.605L1299.75 415.646L1302.71 409.874L1305.38 409.135L1304.93 400.996L1301.53 397.74L1298.12 400.848L1298.86 408.691L1296.35 399.072L1294.42 398.628L1279.77 404.695L1286.28 398.332L1286.58 395.816L1293.39 394.188L1295.31 389.157L1299.9 391.821L1295.02 384.57L1291.61 381.61L1232.4 398.48L1194.65 408.099L1156.46 415.202L1156.31 414.906H1156.31Z" fill="#3B82F6" stroke="white" stroke-width="0.970631" stroke-linejoin="round"/>
<path d="M1155.57 282.758L1151.87 266.776L1151.13 263.52L1146.99 245.318L1141.66 248.722L1130.26 257.453L1122.86 266.48L1117.09 267.368L1106.43 273.435L1100.51 269.883L1082.6 267.812L1073.12 270.179L1063.8 272.399L1054.03 274.471L1052.55 274.915L1052.99 277.283L1056.99 299.628L1065.87 352.013L1066.17 354.529L1067.35 353.345L1074.6 352.457L1078.45 354.381L1086 360.892L1088.07 360.005L1096.07 363.556L1099.92 360.596L1104.36 362.372L1107.91 361.484L1113.53 356.009L1116.35 360.744L1122.56 364.296L1122.86 364.592L1129.23 361.484L1131.45 356.601L1129.67 351.57L1134.7 343.874L1138.4 343.283L1137.96 336.771L1144.03 328.484L1145.06 329.668L1150.54 325.525L1155.28 318.422L1156.02 286.013L1156.31 285.865L1155.57 282.758V282.758Z" fill="#3B82F6" stroke="white" stroke-width="0.970631" stroke-linejoin="round"/>
<path d="M1106.87 425.856L1064.54 432.96L1004.29 440.951L999.258 441.099L1000.74 447.018L970.836 451.013L966.544 451.605V451.753L965.359 453.233L964.767 453.085V451.901V451.753L963.139 451.901L963.287 452.049L964.175 456.193L961.215 459.892L960.919 466.7V467.883V468.032L956.478 476.614L957.366 482.682L953.221 489.193L954.702 495.112L949.373 499.996L949.669 500.292L952.925 499.996L982.531 496.296L995.557 494.52L1002.96 493.484H1003.25L1003.11 493.188L1027.97 489.785L1039.82 488.305L1063.5 484.458L1067.94 483.718L1070.61 483.422L1083.19 481.054L1086.3 480.462L1097.84 478.242L1099.92 477.946V476.467L1099.77 469.955L1105.24 466.996L1105.54 463.148L1111.76 457.377L1117.68 455.897L1129.82 444.946L1134.41 438.139L1137.96 439.471L1145.95 431.628L1150.25 431.184L1154.09 423.341L1155.72 423.489L1155.57 417.126L1156.31 414.906L1153.95 415.35L1145.51 417.718L1135.44 419.789L1110.13 424.969L1107.47 425.413L1106.87 425.857L1106.87 425.856Z" fill="#3B82F6" stroke="white" stroke-width="0.970631" stroke-linejoin="round"/>
<path d="M1293.68 380.87H1294.13L1294.57 380.722L1294.28 379.982L1293.68 380.87V380.87ZM1288.65 364.296V365.036L1289.39 364.592L1288.65 364.296ZM1291.32 359.117L1291.17 357.933L1291.32 359.117ZM1290.43 360.893L1290.13 362.816L1289.69 363.556L1290.43 360.893ZM1291.76 357.045L1291.91 356.157L1291.61 357.045H1291.76H1291.76ZM1292.65 353.05L1293.09 352.014L1292.35 354.677L1292.65 353.05ZM1292.8 350.83L1293.39 347.574L1292.65 348.314L1292.8 350.83ZM1295.46 336.18L1295.76 334.848L1295.61 335.144L1295.46 336.18H1295.46ZM1294.87 332.776L1292.94 333.516L1289.98 334.848L1288.95 336.18L1289.39 336.328L1285.84 358.377L1287.17 361.928L1289.24 352.754L1293.09 340.767L1294.87 332.924V332.776ZM1297.83 331.592L1297.38 331.74L1297.24 332.332L1296.5 336.92L1297.09 335.292L1297.83 331.592V331.592ZM1143.14 388.269L1142.1 389.749L1135 398.776L1129.37 403.215L1128.19 407.063L1119.6 418.31L1108.5 424.229L1107.47 425.413L1110.13 424.969L1135.44 419.789L1145.51 417.718L1153.95 415.35L1156.31 414.906L1156.46 415.202L1194.65 408.099L1232.4 398.48L1291.61 381.61L1291.17 380.87L1291.02 380.426L1292.06 381.462L1293.24 381.166L1293.09 381.018L1292.06 375.987L1292.8 376.135L1295.16 380.574L1295.61 380.426L1295.9 380.278L1295.31 379.094L1289.24 369.771L1281.69 371.103L1278.29 373.915L1275.03 370.955L1263.93 367.256L1256.23 366.96L1271.18 365.628L1279.47 371.251L1281.84 367.552L1275.18 359.117L1279.92 359.413L1277.4 352.605L1271.48 352.901L1257.42 341.507H1255.64L1275.48 351.274L1274.14 344.466L1275.48 342.247L1265.41 338.399L1256.68 337.807L1252.38 333.96L1248.83 336.179L1247.5 325.969L1248.98 326.265L1248.68 317.978L1248.39 317.682L1248.09 317.83L1247.8 317.682L1247.06 317.09L1246.61 316.646L1241.87 314.574L1236.99 311.022L1230.18 309.247L1229.74 309.099V309.247L1228.85 315.462L1215.08 309.543L1215.38 318.126L1207.83 332.48L1203.24 337.511L1200.28 346.242L1191.25 343.135L1186.81 363.26L1183.26 370.067L1182.66 378.946L1180 383.238L1170.08 386.197L1161.94 392.561L1158.09 393.153L1154.39 396.408L1145.06 393.005L1143.44 388.417L1143.14 388.269L1143.14 388.269Z" fill="#3B82F6" stroke="white" stroke-width="0.970631" stroke-linejoin="round"/>
<path d="M984.159 173.251L980.458 177.839L978.238 184.498L979.274 188.197L984.159 173.251ZM899.192 138.475L901.412 135.368L899.784 136.848L899.192 138.475ZM902.596 133.592L901.856 132.704L900.228 133.74L902.596 133.592V133.592ZM870.326 141.879L866.922 145.727L868.55 163.484L859.076 172.067L857.3 180.354L862.481 185.09L861 205.511L866.478 209.655L870.03 209.951L881.28 216.758L888.385 224.157L897.415 228.744L899.488 240.139V240.879L903.78 246.058L902.596 250.054L904.076 258.785L908.517 264.852L916.659 269.144L916.511 269.883L948.781 266.184L960.771 264.704L980.754 261.892L980.162 259.673V252.718L976.166 245.318L975.129 235.996L977.054 225.637L976.018 217.646L979.57 207.731L978.238 206.103L978.534 196.928L980.458 189.973L978.238 187.605L973.945 189.085L971.577 195.301L965.952 198.556L967.728 190.713L972.761 184.054L973.057 181.094L973.205 180.946L966.1 173.843V163.78L958.106 157.269L947.152 156.529L935.902 153.569L911.626 146.17L906.889 143.507L906.445 143.951L898.895 142.915L896.379 144.395L897.415 133.592L885.277 139.807L870.474 142.175L870.326 141.879V141.879ZM899.34 134.036L899.044 133L898.007 133.444L899.34 134.036ZM894.011 133L894.455 132.112L894.159 131.816L894.011 133ZM904.817 130.484L904.372 128.413L903.928 130.928L904.817 130.484Z" fill="#3B82F6" stroke="white" stroke-width="0.970631" stroke-linejoin="round"/>
<path d="M1183.85 308.803L1162.83 313.982L1156.31 285.865L1156.02 286.014L1155.28 318.422L1150.54 325.525L1145.06 329.668L1144.03 328.484L1137.96 336.771L1138.4 343.283L1134.7 343.875L1129.67 351.57L1131.45 356.601L1129.23 361.484L1122.86 364.592V364.888L1125.82 375.247L1134.26 385.457L1139 388.121H1142.7L1143.14 388.269L1143.44 388.417L1145.06 393.005L1154.39 396.408L1158.09 393.153L1161.94 392.561L1170.08 386.198L1180 383.238L1182.66 378.946L1183.26 370.067L1186.81 363.26L1191.25 343.135L1200.28 346.242L1203.24 337.511L1207.83 332.48L1215.38 318.126L1215.08 309.543L1228.85 315.462L1229.74 309.247V309.099L1225.44 301.7L1216.56 300.664L1211.38 304.659V307.619L1206.94 308.655L1200.43 313.242L1197.02 313.982L1190.21 323.601L1186.81 308.063L1183.85 308.803V308.803Z" fill="#3B82F6" stroke="white" stroke-width="0.970631" stroke-linejoin="round"/>
<path d="M1270.89 284.386L1271.48 286.605L1283.77 321.677L1297.83 317.534L1297.68 317.238H1297.98L1298.42 317.386L1298.72 317.238L1298.42 316.646L1294.87 307.175L1277.55 290.749L1278.29 279.354H1274.74L1272.07 281.426L1270.89 284.386H1270.89Z" fill="#3B82F6" stroke="white" stroke-width="0.970631" stroke-linejoin="round"/>
<path d="M1247.06 317.09L1247.8 317.682L1248.09 317.83L1248.39 317.682L1248.68 317.83L1249.72 318.421L1250.02 318.865V319.901L1250.31 320.493L1252.24 316.942L1250.16 315.758L1247.65 315.906L1247.06 317.09V317.09Z" fill="#3B82F6" stroke="white" stroke-width="0.970631" stroke-linejoin="round"/>
<path d="M1297.98 331L1299.01 323.009L1298.12 328.928L1297.53 331.444L1297.38 331.74L1297.83 331.592L1297.98 331V331ZM1298.72 317.238L1298.42 317.386L1298.72 318.274V320.05V317.238V317.238ZM1186.81 308.063L1190.21 323.601L1197.02 313.982L1200.43 313.242L1206.94 308.655L1211.38 307.619V304.659L1216.56 300.664L1225.44 301.7L1229.74 309.099L1230.18 309.247L1236.99 311.023L1241.87 314.574L1246.61 316.646L1247.06 317.09L1247.65 315.906L1250.16 315.758L1252.24 316.942L1250.31 320.493V320.641L1247.5 329.224L1256.68 335.144L1265.85 335.588L1271.92 338.399L1269.41 331.296L1261.56 328.632L1259.64 322.565L1264.52 329.076L1268.52 329.668L1264.97 326.117L1262.15 315.61L1262.89 309.543L1259.79 302.884L1263.04 300.22L1265.41 291.637L1264.52 304.363L1267.04 308.655L1269.41 303.624L1270.74 311.911L1268.22 317.978L1275.48 320.641L1269.26 322.713L1272.52 328.78L1277.84 330.556L1280.81 325.377L1280.51 332.628L1285.54 332.48L1288.8 336.18H1288.95L1289.98 334.848L1292.94 333.516L1294.87 332.776L1294.72 332.48L1298.57 321.085V320.641L1297.83 317.682V317.534L1283.77 321.677L1271.48 286.605L1270.89 284.386L1268.37 285.126L1257.86 288.381L1199.98 304.511L1189.47 307.323L1186.81 308.063V308.063Z" fill="#3B82F6" stroke="white" stroke-width="0.970631" stroke-linejoin="round"/>
<path d="M1305.97 283.794L1305.23 282.018V283.794H1305.97ZM1307.45 278.318L1307.89 273.879L1307.01 277.726L1307.45 278.318ZM1301.38 232.888L1285.84 229.04L1283.17 228.3L1280.66 227.708L1274.44 241.471L1277.1 244.726L1276.96 254.641L1279.77 255.085L1285.54 270.179L1285.25 270.623L1277.99 281.278L1278.73 289.417L1296.2 295.336L1296.35 302.143L1300.34 296.52L1300.94 288.381L1305.08 285.57L1303.45 279.502L1306.56 272.251V256.417L1305.53 251.238L1298.57 251.386L1300.34 244.283L1301.38 232.888V232.888Z" fill="#3B82F6" stroke="white" stroke-width="0.970631" stroke-linejoin="round"/>
<path d="M1300.94 244.874L1298.72 247.982L1298.12 248.87L1300.94 244.874ZM1321.36 237.623L1328.77 231.112V230.816L1321.36 237.623ZM1301.97 242.211V237.179L1301.53 239.843L1301.97 242.211ZM1336.32 218.534L1334.54 218.09L1334.24 219.421L1336.32 218.534ZM1340.31 215.87L1340.16 217.35L1340.46 216.462L1340.31 215.87H1340.31ZM1336.17 216.018L1326.25 225.193L1311 231.704L1307.01 235.108L1306.71 238.363L1302.57 241.767L1303.16 246.206L1309.52 243.691L1318.85 236.143L1329.21 230.668L1344.9 215.87L1333.8 224.305L1330.25 225.785L1336.17 216.018ZM1340.76 209.803L1341.35 208.915L1339.57 210.986L1340.76 209.803ZM1174.37 204.327L1172.01 204.031L1173.78 206.399L1174.37 204.327ZM1223.52 159.045L1223.81 157.417L1222.63 158.897L1223.52 159.045V159.045ZM1224.26 148.39L1223.67 148.686L1222.93 150.314L1224.26 148.39ZM1161.64 232.444L1162.68 236.883L1170.53 238.807L1215.53 226.525L1260.82 212.91L1269.11 219.273L1270.74 222.973L1280.36 227.117L1280.66 227.708L1283.17 228.3L1285.84 229.04L1301.38 232.888L1301.08 232.148L1302.42 238.215L1305.38 237.475L1307.01 230.816V230.668L1304.34 228.152L1308.19 223.417L1306.41 221.197L1300.79 199.444L1300.49 197.964L1299.75 197.52L1299.31 191.009L1298.86 183.906L1298.42 176.211V175.767L1298.12 175.915L1290.72 151.646L1282.88 139.363L1280.66 124.713L1274 109.175L1273.11 109.619L1242.17 119.977L1235.95 126.637L1229 139.955L1229.29 142.915L1220.11 156.825L1225.74 158.749L1227.37 169.256L1220.85 177.839L1201.31 189.677L1197.61 188.197L1183.11 190.269L1169.64 198.408L1170.38 202.699L1175.11 206.843L1172.45 219.865L1161.79 232.296L1161.64 232.444V232.444Z" fill="#3B82F6" stroke="white" stroke-width="0.970631" stroke-linejoin="round"/>
<path d="M1280.36 227.117L1270.74 222.973L1269.11 219.274L1260.82 212.91L1215.53 226.525L1170.53 238.807L1162.68 236.883L1161.64 232.444L1159.13 234.368L1155.13 237.179L1147.88 244.579L1146.99 245.318L1151.13 263.52L1151.87 266.776L1155.57 282.758L1156.31 285.866L1162.83 313.982L1183.85 308.803L1186.81 308.063L1189.47 307.323L1199.98 304.511L1257.86 288.381L1268.37 285.126L1270.89 284.386L1272.07 281.426L1274.74 279.354H1278.29L1278.73 278.023L1284.51 271.511L1285.1 270.475L1285.54 270.179L1279.77 255.085L1276.96 254.641L1277.1 244.727L1274.44 241.471L1280.66 227.709L1280.36 227.117Z" fill="#3B82F6" stroke="white" stroke-width="0.970631" stroke-linejoin="round"/>
<path d="M1351.71 148.242H1351.56L1351.86 148.39L1351.71 148.242H1351.71ZM1362.66 116.722L1361.48 114.946V115.834L1362.66 116.722ZM1360.59 115.094V113.614L1360.44 112.727L1360.59 115.094ZM1365.92 108.879L1365.62 108.731L1365.77 109.175L1365.92 108.879L1365.92 108.879ZM1380.72 101.48L1380.43 99.2602L1379.84 100.296L1380.72 101.48ZM1377.02 102.368L1377.17 100.74L1375.39 101.036L1377.02 102.368ZM1382.5 97.4844H1381.91V97.7803L1382.5 97.4844ZM1375.1 99.7041L1373.77 99.4082L1373.62 100.74L1375.1 99.7041ZM1382.65 95.1167L1383.98 96.1525L1383.54 94.9687L1382.65 95.1167ZM1378.65 95.2646L1377.32 97.7803L1379.1 96.8925L1378.65 95.2646ZM1372.29 95.4126L1371.69 96.3005L1372.14 97.6324L1372.29 95.4126ZM1381.02 90.5292L1380.87 89.3454L1380.43 90.0853L1381.02 90.5292H1381.02ZM1380.28 91.1212L1378.95 89.9373V90.9732L1380.28 91.1211V91.1212ZM1371.99 94.5247L1371.69 92.8969L1371.1 94.2288L1371.99 94.5247ZM1386.05 89.3454L1383.83 92.601L1383.68 90.2333L1386.05 89.3454ZM1396.86 79.4306L1395.82 77.9507L1395.23 78.2467L1396.86 79.4306ZM1400.86 72.7714L1399.97 72.3274L1399.82 72.7714H1400.86ZM1402.78 61.2288H1401.45L1402.93 61.6727L1402.78 61.2288H1402.78ZM1405 62.7086L1404.56 60.0449L1403.37 59.8969L1405 62.7086ZM1402.63 60.3409L1402.34 57.5292L1401.3 59.453L1402.63 60.3409ZM1316.78 83.5741L1338.24 133.888L1338.54 134.924L1347.86 146.318V146.17L1349.34 145.726L1349.64 137.291L1352.01 134.332L1353.49 126.489L1352.15 125.157L1354.67 117.462L1363.26 113.466L1368.88 106.659L1370.95 94.8206L1379.98 94.2287L1378.8 88.1614L1390.05 83.87L1390.79 77.2108L1393.45 77.8027L1400.86 71.7354L1404.11 63.8924L1396.56 56.3453L1388.57 54.7175L1385.61 48.6502V45.0987L1380.72 46.5785L1375.25 44.6547V38.5874L1360.44 6.62332L1349.64 1L1337.65 11.0628L1334.39 10.4709L1331.58 5.29148L1327.73 6.7713L1322.25 34L1324.18 42.8789L1325.81 60.9327L1321.51 74.8431L1324.47 77.0628L1320.92 83.87L1317.07 83.278L1316.78 83.574V83.5741Z" fill="#3B82F6" stroke="white" stroke-width="0.970631" stroke-linejoin="round"/>
<path d="M1005.77 178.43L1005.03 177.246L1004.88 178.726L1005.77 178.43ZM1008.14 175.767L1006.36 173.399L1006.07 174.435L1008.14 175.767ZM1009.62 165.112L1008.14 163.78V164.076L1009.62 165.112ZM1005.92 280.982L1024.27 278.022L1029.46 276.986L1052.1 272.991L1052.55 274.915L1054.03 274.471L1063.8 272.399L1073.12 270.179L1082.6 267.812L1082.45 267.368L1087.33 257.749L1086.89 249.758L1092.37 235.995L1096.66 238.511L1098.29 235.403L1097.84 223.565L1093.85 216.166L1087.93 200.48L1082.74 194.708L1080.08 193.968L1070.46 200.628L1071.49 201.959L1066.46 211.43L1061.58 210.542L1060.1 200.628L1062.17 199.888L1066.46 189.973L1066.91 172.511L1060.24 157.713L1045.44 155.197L1043.96 152.977L1030.2 148.982L1023.98 156.677L1024.57 163.336L1019.83 169.255L1020.87 178.43L1016.28 181.686V170.143L1012.14 178.874L1007.25 186.569L1003.99 189.085L1005.62 197.224L1003.55 205.659L1004.73 216.166L1003.25 221.345L1013.91 241.767L1015.24 249.61L1013.91 264.112L1006.81 280.39L1005.92 280.982ZM1037.6 147.65L1033.75 147.946L1036.12 149.722L1037.6 147.65ZM1015.1 151.498H1013.91L1015.24 152.09L1015.1 151.498H1015.1ZM1041 132.704L1039.52 130.336L1038.93 130.484L1041 132.704V132.704ZM906.889 143.507L911.626 146.17L935.902 153.569L947.152 156.529L958.106 157.269L966.1 163.78V173.843L973.205 180.946V180.798L978.978 164.076L985.935 159.193L991.264 153.273L992.152 158.601L997.63 150.166L1010.8 145.134L1011.84 143.063L1025.16 144.69L1030.34 147.354L1032.86 140.843L1035.23 142.323L1045.59 140.695L1043.07 136.551L1038.49 133.888L1039.37 124.269L1030.34 129.3L1022.05 128.264L1019.39 121.901L1020.28 119.829L1009.03 125.157L1001.77 125.601L988.748 133.592L987.268 136.551L979.274 134.628L974.241 136.847L964.175 128.116L941.823 121.309L941.379 118.646L927.021 132.408L918.879 134.48L907.333 143.211L906.889 143.507V143.507ZM959.291 109.915L941.971 118.498L947.744 124.121L949.965 118.498L955.886 111.246L959.291 109.915ZM939.899 89.6411L928.057 97.7801L927.465 101.776L936.79 94.9685L939.899 89.6411Z" fill="#3B82F6" stroke="white" stroke-width="0.970631" stroke-linejoin="round"/>
<path d="M233.471 680.834C233.739 681.513 234.11 682.149 234.586 682.743C234.374 681.601 233.538 680.56 232.537 679.834C232.848 680.166 233.16 680.5 233.471 680.834Z" fill="#3B82F6" stroke="white" stroke-miterlimit="3.97447"/>
<path d="M137.545 634.589C136.553 635.18 137.045 636.5 137.99 637.459C138.327 636.522 137.209 635.528 137.545 634.589Z" fill="#3B82F6" stroke="white" stroke-miterlimit="3.97447"/>
<path d="M166.652 643.654C166.245 644.396 165.034 646.836 166.915 647.526C167.116 646.376 167.559 644.987 166.652 643.654Z" fill="#3B82F6" stroke="white" stroke-miterlimit="3.97447"/>
<path d="M194.802 682.65C194.781 683.368 195.232 683.668 195.907 683.558C195.647 684.281 196.037 685.057 196.777 685.555C194.523 683.309 196.708 680.217 196.124 677.923C196.398 679.66 195.532 681.31 194.802 682.65Z" fill="#3B82F6" stroke="white" stroke-miterlimit="3.97447"/>
<path d="M186.265 636.535C186.165 635.422 183.981 630.68 182.502 630.607C180.246 630.5 185.797 636.215 186.265 636.535Z" fill="#3B82F6" stroke="white" stroke-miterlimit="3.97447"/>
<path d="M197.293 685.827C198.17 686.546 198.985 687.448 200.126 687.548C199.565 686.503 198.423 685.693 197.293 685.827Z" fill="#3B82F6" stroke="white" stroke-miterlimit="3.97447"/>
<path d="M194.314 639.496C195.328 637.926 194.443 635.889 194.706 634.033C192.209 634.404 193.031 636.767 192.029 638.386C192.784 638.779 193.545 639.149 194.314 639.496Z" fill="#3B82F6" stroke="white" stroke-miterlimit="3.97447"/>
<path d="M206.532 669.082C205.306 669.252 205.184 670.408 205.526 671.545C205.637 670.592 206.934 670.25 206.532 669.082Z" fill="#3B82F6" stroke="white" stroke-miterlimit="3.97447"/>
<path d="M209.694 679.561C209.702 680.515 210.121 681.469 210.8 682.287C211.839 681.448 210.801 680.138 209.694 679.561Z" fill="#3B82F6" stroke="white" stroke-miterlimit="3.97447"/>
<path d="M218.405 690.358C218.413 689.628 217.964 688.911 217.285 688.456C217.423 689.186 217.796 689.82 218.405 690.358Z" fill="#3B82F6" stroke="white" stroke-miterlimit="3.97447"/>
<path d="M234.187 680.288C233.978 681.015 234.252 681.62 235.008 682.105C235.057 681.416 234.783 680.81 234.187 680.288Z" fill="#3B82F6" stroke="white" stroke-miterlimit="3.97447"/>
<path d="M247.864 716.763C247.915 717.533 248.496 718.04 249.279 718.019C249.159 717.3 248.614 716.781 247.864 716.763Z" fill="#3B82F6" stroke="white" stroke-miterlimit="3.97447"/>
<path d="M148.753 597.08C156.3 596.299 163.733 595.252 171.532 595C171.245 595.797 170.64 596.398 170.653 597.363C181.292 601.526 192.151 604.571 202.678 609.254C208.169 611.697 213.797 610.63 218.831 610.63C221.47 610.63 224.109 610.63 226.748 610.63C228.274 610.63 231.599 611.302 232.69 610.513C234.145 609.456 232.498 606.918 233.946 605.851C235.22 604.914 238.495 605.56 240.269 605.56C242.778 605.56 245.261 605.461 247.779 605.492C250.094 605.521 250.729 606.525 251.926 608.361C252.928 609.899 254.98 610.242 256.288 611.78C257.423 613.114 259.371 615.375 260.834 616.232C262.215 617.041 264.073 617.668 264.822 619.222C265.905 621.468 266.41 623.398 266.744 625.608C267.484 630.5 272.408 632.658 276.464 634.958C277.879 635.76 280.199 637.463 281.435 636.549C282.326 635.889 283.291 634.755 283.547 633.606C283.876 632.126 284.712 629.771 285.758 628.746C286.417 628.101 288.138 627.861 288.995 627.401C289.933 626.897 292.203 627.823 293.396 627.839C294.65 627.855 295.99 628.044 297.28 628.291C298.083 628.443 299.58 630.442 300.503 631.126C302.015 632.243 304.129 634.746 304.874 636.315C305.881 638.437 307.154 640.666 307.868 642.832C308.614 645.106 310.443 646.473 311.742 648.538C312.338 649.482 312.922 650.431 313.643 651.314C314.209 652.007 314.883 651.982 315.393 652.571C316.643 654.014 316.053 656.338 316.458 657.87C316.968 659.795 318.842 661.162 319.166 663.256C319.218 663.591 319.98 665.336 319.977 665.333C320.638 665.834 321.618 665.783 322.303 665.888C323.31 666.043 323.948 666.759 324.894 667.162C325.581 667.452 326.332 667.419 327.001 667.801C328.001 668.373 327.549 669.065 328.946 669.111C331.193 669.189 332.932 669.254 335.031 670.773C336.943 672.161 337.174 670.284 338.805 670.268C337.897 675.257 335.045 679.391 333.998 684.371C333.781 685.411 333.356 694.259 331.983 694.067C333.703 696.122 332.428 699.067 332.602 701.201C332.775 703.855 331.42 705.999 331.737 708.719C332.062 711.503 332.796 714.02 334.861 716.33C337.08 718.812 336.239 718.708 335.628 721.244C335.346 720.244 336.38 718.833 335.614 718.004C334.163 716.434 333.594 714.602 332.405 712.902C333.077 714.466 332.699 716.129 333.567 717.659C334.349 719.036 335.075 719.178 335.463 720.85C336.271 724.337 338.3 727.949 340.571 730.866C343.177 734.217 344.341 736.915 345.857 740.637C346.492 742.195 347.857 743.352 348.628 744.838C349.294 746.122 349.648 747.297 351.168 747.914C350.399 747.857 349.716 746.96 349.278 747.471C350.981 747.898 349.673 749.932 349.249 750.58C350.769 750.509 349.135 748.91 350.419 748.664C350.901 748.693 351.156 748.473 351.183 748.004C352.111 748.472 353.118 748.531 354.073 748.569C357.169 748.693 359.989 750.248 361.827 752.822C363.389 755.007 364.619 754.83 367.039 754.214C368.56 753.826 371.2 753.302 372.194 752.088C371.264 752.317 370.349 752.612 369.539 753.066C370.685 752.324 380.192 750.106 380.717 751.467C379.746 748.981 387.019 747.639 388.319 749.603C386.269 749.253 388.542 750.948 388.401 751.822C388.985 751.261 389.57 751.53 390.341 751.467C390.836 751.567 391.33 751.626 391.822 751.646C391.889 751.297 392.006 750.97 392.173 750.666C393.214 750.233 395.379 747.84 392.55 747.65C393.086 747.15 393.647 746.676 394.232 746.228C393.421 746.754 392.628 747.309 391.746 747.74C392.567 745.912 394.952 745.219 396.565 744.203C398.814 742.787 398.46 740.724 399.229 738.453C399.628 737.269 400.602 736.715 401.24 735.719C401.883 734.715 401.465 733.339 401.413 732.157C401.288 729.326 402.488 727.275 402.766 724.65C402.62 725.008 402.428 725.336 402.191 725.634C403.027 721.625 408.711 720.858 412.331 720.444C414.942 720.145 416.959 719.446 419.325 718.54C422.417 717.355 425.414 718.705 428.717 719.008C428.127 718.784 427.53 718.665 426.928 718.649C428.349 718.277 429.929 719.172 431.354 719.547C428.968 719.08 432.741 717.617 434.439 718.328C436.972 719.39 436.688 722.382 436.219 724.27C435.597 726.772 433.693 728.145 432.142 730.004C431.329 730.979 430.373 732.202 430.101 733.497C429.948 734.223 430.891 737.168 429.866 735.548C430.454 736.996 428.092 738.278 428.136 739.737C432.581 739.189 427.188 741.977 428.419 743.386C428.597 742.719 429.113 742.223 429.88 742.229C428.892 743.963 428.855 746.101 428.183 747.972C427.634 749.501 426.34 752.508 426.533 754.221C424.06 751.92 425.401 750.169 424.527 747.652C423.266 748.611 423.356 748.647 422.831 749.948C422.407 750.998 421.486 750.959 420.617 751.476C418.773 752.572 417.817 755.686 417.075 757.59C416.348 756.924 414.195 755.656 413.92 757.259C413.708 758.493 413.587 758.21 411.811 758.21C407.91 758.21 404.011 758.21 400.11 758.21C399.225 758.21 396.64 757.628 396.666 758.951C396.676 760.027 396.883 761.157 396.928 762.241C397.048 765.127 394.77 764.229 392.45 764.229C394.285 765.857 395.611 767.886 397.91 768.914C399.922 769.814 399.892 772.063 401.813 772.999C402.463 773.317 402.181 776.371 401.67 776.768C400.865 777.392 397.359 776.768 396.361 776.768C394.503 776.768 391.759 776.282 390.113 777.074C388.511 777.845 387.101 779.896 386.668 781.494C386.285 782.91 384.797 784.94 386.156 786.706C386.693 787.401 385.435 792.099 384.846 792.873C383.864 791.809 382.78 790.838 381.795 789.775C381.224 789.158 378.313 784.827 380.234 787.159C379.722 785.877 378.038 785.371 377.044 784.523C375.585 783.277 374.47 781.743 372.922 780.519C369.816 778.064 368.011 775.773 364.099 774.564C364.051 775.956 367.675 776.584 368.5 777.562C366.163 776.455 363.754 775.369 361.238 775.446C361.865 775.199 362.325 774.681 362.486 774.035C361.73 773.929 361.16 774.165 360.777 774.741C360.651 772.587 358.687 773.265 358.618 774.828C359.278 774.761 359.928 774.879 360.568 775.182C357.232 775.402 355.884 777.381 352.955 778.276C350.312 779.084 348.195 780.304 345.468 780.84C343.409 781.245 342.469 780.99 340.231 779.897C337.743 778.68 336.263 778.515 333.638 778.119C332.267 777.914 331.353 777.237 330.243 776.387C328.829 775.304 327.566 775.074 325.969 774.532C324.675 774.094 324.255 773.076 323.218 772.309C321.955 771.374 319.948 771.188 318.512 770.844C317.094 770.503 315.504 770.369 314.135 769.761C312.702 769.122 311.546 768.046 310.061 767.443C306.629 766.051 303.264 765.264 300.096 763.124C297.48 761.356 295.814 758.878 293.398 757.009C292.452 756.277 291.444 756.57 290.513 756.753C289.113 757.031 286.482 756.024 285.035 755.551C282.63 754.766 279.326 753.698 277.51 751.722C276.61 750.744 275.915 749.652 275.116 748.61C273.757 746.835 272.245 746.77 270.481 745.698C269.851 744.05 265.478 743.206 263.765 741.903C262.865 741.219 262.901 740.129 262.008 739.39C261.003 738.56 259.865 736.639 259.175 735.546C258.366 734.264 256.613 730.738 258.071 729.748C259.084 729.06 260.473 729.432 261.254 728.372C261.986 727.38 259.793 726.553 259.071 726.71C259.251 725.372 263.295 720.882 261.638 719.226C260.111 717.689 259.483 716.795 258.487 714.91C257.413 712.882 258.007 711.322 257.42 709.293C256.157 704.933 251.274 701.285 248.54 697.466C245.377 693.051 242.262 689.785 237.668 686.648C238.842 687.112 239.988 688.432 240.164 686.739C238.471 686.933 235.179 685.315 235.496 683.433C235.725 682.078 235.079 678.164 232.787 679.201C232.467 677.591 232.467 678.809 231.204 678.212C230.342 677.802 229.546 677.115 228.641 676.836C229.807 677.059 229.888 676.982 228.879 676.605C228.266 676.039 228.229 675.22 227.561 674.65C227.096 675.152 226.526 675.517 225.848 675.743C225.352 674.59 226.729 674.491 226.68 673.464C225.54 674.734 224.674 673.965 222.835 673.555C223.136 673.35 223.431 673.137 223.719 672.917C222.769 672.242 222.407 672.424 222.633 673.464C222.323 672.144 222.133 670.838 222.41 669.659C222.514 669.221 223.337 666.218 223.595 667.899C223.744 667.195 224.178 665.865 225.074 666.985C224.978 666.029 224.599 665.215 223.671 665.98C223.806 664.801 223.184 663.287 221.776 662.569C220.661 662.001 219.958 663.018 218.663 662.104C217.259 661.111 217.677 658.066 216.201 657.7C215.177 657.447 212.015 657.117 211.538 655.775C211.03 654.352 209.49 649.533 211.327 649.558C210.419 649.455 208.225 649.14 208.288 648.359C207.993 648.71 207.843 649.14 207.839 649.649C207.383 648.288 205.478 648.21 204.507 647.319C203.676 646.553 203.095 645.251 202.472 644.358C201.828 643.44 200.759 643.395 200.006 642.641C198.844 641.476 198.443 639.351 197.263 638.371C195.217 636.671 195.907 635.056 194.809 633.108C193.552 634.371 193.027 630.841 192.585 630.045C191.117 627.403 190.655 625.886 190.037 623.233C189.533 621.063 187.408 619.091 187.271 616.919C187.209 615.911 188.079 613.373 187.455 612.601C186.43 611.335 184.359 611.35 183.117 610.964C181.102 610.337 182.493 607.956 179.615 607.756C178.634 607.689 178.676 608.801 177.574 608.72C176.519 608.64 175.366 607.824 174.457 607.095C172.539 605.553 170.607 605.083 168.618 603.494C169.192 604.686 170.967 605.79 170.953 607.019C170.935 608.537 170.493 610.206 170.331 611.704C170.166 613.218 171.858 614.707 172.017 616.253C172.193 617.95 172.599 619.716 172.446 621.335C172.072 625.273 174.286 626.818 177.636 629.713C180.677 632.34 181.839 634.192 182.693 637.557C183.914 636.354 185.53 639.204 186.066 640.228C186.347 640.766 186.618 641.851 187.185 642.259C187.643 642.588 189.18 642.913 189.068 643.644C188.807 645.328 189.731 649.932 191.657 651.338C194.256 653.236 195.032 656.628 197.862 658.011C196.784 659.039 198.97 662.339 199.511 663.783C200.204 662.977 199.058 661.026 198.562 660.028C203.493 660.818 204.051 675.729 207.038 675.014C207.104 676.522 207.334 678.267 208.092 679.746C208.892 681.308 210.314 682.151 209.485 683.797C208.408 685.934 210.269 689.957 213.319 689.638C211.289 689.845 213.132 689.912 213.335 689.507C213.581 689.014 213.491 688.384 213.794 687.915C214.517 689.093 216.779 690.746 217.915 691.533C218.539 691.966 218.958 694.672 219.448 695.427C220.562 697.139 223.3 698.344 221.464 700.413C220.733 701.233 217.948 703.806 216.636 703.273C214.912 702.57 215.048 699.072 214.12 697.737C213.44 696.757 212.423 696.032 211.458 695.338C209.901 694.218 208.859 692.585 207.451 691.31C205.396 689.451 202.601 688.641 200.762 686.479C199.22 684.665 196.16 683.607 196.317 681.019C196.276 681.64 196.187 682.245 196.048 682.834C195.24 677.589 198.927 674.238 194.855 668.786C193.2 666.678 190.818 666.409 188.868 664.452C187.979 663.558 186.607 662.165 186.225 661.038C185.951 660.227 186.854 660.037 186.284 659.112C185.926 659.813 186.275 661.193 185.469 661.586C184.65 661.987 183.618 661.155 182.863 661.853C182.252 662.419 181.398 661.203 181.024 660.69C180.128 659.459 179.077 659.243 177.87 658.469C177.567 658.091 177.228 657.747 176.851 657.433C176.272 657.306 175.692 657.162 175.111 657.001C173.914 656.285 174.257 655.894 173.78 654.942C172.646 652.677 169.013 652.289 168.073 649.739C170.351 649.959 173.506 651.143 174.928 649.463C175.581 651.853 179.65 651.223 179.18 653.695C180.038 652.821 179.691 649.811 178.157 648.82C178.341 649.386 178.543 651.682 177.259 651.136C176.503 650.814 176.839 648.938 176.749 648.451C176.465 648.657 176.193 648.872 175.927 649.096C176.299 646.735 179.039 644.473 176.766 641.532C174.398 638.471 171.54 634.488 168.106 632.424C165.279 630.724 163.004 629.363 161.537 626.393C160.986 625.277 161.51 624.476 161.423 623.415C161.309 622.021 159.795 621.42 160.202 620.643C159.993 620.914 159.759 621.163 159.5 621.389C158.123 618.882 160.358 617.777 157.55 615.45C156.251 614.383 157.106 613.561 156.655 612.415C156.049 610.874 154.417 609.86 153.631 608.441C153.044 607.381 153.289 606.514 153.736 605.849C154.128 605.265 152.927 604.337 152.442 603.762C151.996 603.385 151.579 602.981 151.191 602.553C151.082 601.926 150.962 601.3 150.828 600.669C150.057 599.308 148.579 598.546 148.753 597.08Z" fill="#3B82F6" stroke="white" stroke-miterlimit="3.97447"/>
<path d="M388.467 749.426C389.792 749.705 390.446 748.396 391.525 748.094C390.308 747.925 389.346 748.914 388.467 749.426Z" fill="#3B82F6" stroke="white" stroke-miterlimit="3.97447"/>
<path d="M434.533 732.155C435.607 731.214 436.586 729.988 437 728.581C436.009 729.606 433.281 729.691 434.533 732.155Z" fill="#3B82F6" stroke="white" stroke-miterlimit="3.97447"/>
</svg>
